<?xml version="1.0" encoding="UTF-8" standalone="no"?>
<!-- Created with Inkscape (http://www.inkscape.org/) -->

<svg
   xmlns:dc="http://purl.org/dc/elements/1.1/"
   xmlns:cc="http://creativecommons.org/ns#"
   xmlns:rdf="http://www.w3.org/1999/02/22-rdf-syntax-ns#"
   xmlns:svg="http://www.w3.org/2000/svg"
   xmlns="http://www.w3.org/2000/svg"
   xmlns:sodipodi="http://sodipodi.sourceforge.net/DTD/sodipodi-0.dtd"
   xmlns:inkscape="http://www.inkscape.org/namespaces/inkscape"
   version="1.1"
   id="svg186"
   width="266.28473"
   height="233.56995"
   viewBox="0 0 266.28473 233.56995"
   sodipodi:docname="bg-topdesc.svg"
   inkscape:version="0.92.4 (unknown)">
  <metadata
     id="metadata192">
    <rdf:RDF>
      <cc:Work
         rdf:about="">
        <dc:format>image/svg+xml</dc:format>
        <dc:type
           rdf:resource="http://purl.org/dc/dcmitype/StillImage" />
        <dc:title></dc:title>
      </cc:Work>
    </rdf:RDF>
  </metadata>
  <defs
     id="defs190" />
  <sodipodi:namedview
     pagecolor="#ffffff"
     bordercolor="#666666"
     borderopacity="1"
     objecttolerance="10"
     gridtolerance="10"
     guidetolerance="10"
     inkscape:pageopacity="0"
     inkscape:pageshadow="2"
     inkscape:window-width="1920"
     inkscape:window-height="1007"
     id="namedview188"
     showgrid="false"
     inkscape:zoom="0.92678574"
     inkscape:cx="421.01967"
     inkscape:cy="90.302509"
     inkscape:window-x="0"
     inkscape:window-y="24"
     inkscape:window-maximized="1"
     inkscape:current-layer="svg186" />
  <path
     style="fill:#fe4d53;stroke-width:1.33333325"
     d="m 61.795578,230.82569 c -2.93333,-1.347 -6.32777,-3.58381 -7.54318,-4.97072 -4.95753,-5.65699 -53.44415958,-88.13127 -54.06630958,-91.96515 -0.5461,-3.36517 0.0128,-4.68021 2.98185998,-7.01564 C 6.5575284,124.20793 8.3368284,124 27.762718,124 h 20.94085 l 31.71916,52.58718 c 19.932262,33.04571 31.422622,53.35994 30.921182,54.66667 -1.27582,3.32473 -42.144762,2.97157 -49.548332,-0.42816 z m 40.296632,-5.15903 c -0.29007,-0.55 -13.282922,-22.16612 -28.872992,-48.03582 l -28.34558,-47.03584 -18.76298,0.36917 c -11.96988,0.23551 -18.9365996,0.89192 -19.2425496,1.81306 -0.26377,0.79415 11.2847496,21.08201 25.6633696,45.08411 19.65763,32.81434 27.19161,44.27964 30.37019,46.21779 3.61818,2.20619 6.78401,2.57828 21.9726,2.58255 9.75994,0.003 17.508022,-0.44502 17.217942,-0.99502 z m 30.29691,6.69682 C 129.0737,229.93513 68.849848,127.98373 69.590578,126.05344 70.256248,124.31872 73.807978,124 92.473518,124 c 19.050572,0 22.776572,0.34788 27.041842,2.52478 2.72079,1.38864 5.94132,3.63864 7.15674,5 4.75234,5.32302 53.43242,88.01259 54.0484,91.80839 0.48734,3.00311 -0.0919,4.70723 -2.27128,6.68231 -2.61582,2.37057 -5.13382,2.68965 -23.78955,3.01466 -11.47525,0.19992 -21.497,-0.10013 -22.27055,-0.66666 z m 41.5173,-7.50488 c 0.38161,-0.99444 -11.18723,-21.52678 -25.70851,-45.62742 -20.17361,-33.48166 -27.39109,-44.38844 -30.59347,-46.23162 -3.56729,-2.05321 -6.78762,-2.35675 -21.634632,-2.03925 l -17.4435,0.37302 L 107.26936,179 136.0124,226.66666 h 18.60011 c 14.42588,0 18.7558,-0.40576 19.29391,-1.80806 z m 24.30377,-4.52527 c -2.11359,-2.46747 -21.08128,-34.41192 -21.08128,-35.50404 0,-0.86643 58.22957,-97.803791 61.55716,-102.476965 1.77664,-2.495061 3.24864,-3.367214 4.5006,-2.666583 2.69686,1.509242 21.8553,34.212938 22.79498,38.911318 0.43728,2.18641 0.39646,6.10005 -0.0907,8.69697 -0.87316,4.65434 -49.18122,86.54179 -54.4936,92.37263 -3.33584,3.6614 -10.31948,4.01446 -13.18713,0.66667 z m 36.08726,-50.0894 c 20.3134,-33.7966 25.49812,-43.38217 25.49812,-47.14122 0,-3.45024 -2.36394,-8.64197 -8.795,-19.3157 l -8.79498,-14.597215 -7.98335,13.071765 c -21.19968,34.71197 -49.09333,81.59869 -49.09333,82.52146 0,1.03655 15.32406,27.69238 17.79637,30.95635 1.05681,1.39521 1.76827,1.26331 3.59577,-0.66667 1.25306,-1.32332 13.75243,-21.49626 27.7764,-44.82877 z m -72.16833,-9.91196 c -2.01654,-3.48259 -7.0073,-12.03197 -11.09057,-18.99864 -11.35573,-19.37454 -12.17469,-16.54512 20.52687,-70.917763 22.35292,-37.166057 27.61822,-45.057529 30.99677,-46.456969 6.02901,-2.497298 9.13629,0.542927 20.81445,20.365299 l 10.00984,16.990562 -31.67769,52.676101 c -20.41915,33.95452 -32.43037,52.67562 -33.79545,52.67474 -1.16478,-7.4e-4 -3.76767,-2.85074 -5.78422,-6.33333 z m 35.0225,-51.7032 C 222.89295,65.67306 225.38825,60.98144 223.92209,58.295437 218.14451,47.710855 206.88444,30.105246 205.63676,29.705513 204.81608,29.442584 192.28139,48.901281 177.7819,72.947062 157.98406,105.77954 151.27888,117.99478 150.85582,122 c -0.49107,4.64912 0.51664,7.17 7.85488,19.64985 4.63001,7.87409 8.78617,14.32409 9.23589,14.33333 0.44973,0.009 13.59199,-21.30024 29.20503,-47.35441 z M 14.462248,108.38742 c -3.66871,-1.34896 -6.6667896,-4.76996 -6.6552796,-7.59407 0.006,-1.536343 4.6573896,-10.593351 10.3358296,-20.126684 l 10.32444,-17.333334 63.25095,-0.346549 c 36.639052,-0.200744 63.760402,0.162889 64.461792,0.864281 1.2493,1.249311 -15.62859,31.397452 -20.89564,37.324826 -1.55215,1.74674 -5.2221,4.28356 -8.15543,5.63738 -4.90976,2.266 -9.51612,2.45546 -58.000002,2.38552 -28.96666,-0.0418 -53.56666,-0.40691 -54.66666,-0.81137 z M 126.5649,99.636131 c 4.23956,-2.85704 19.59565,-26.092357 19.80664,-29.969465 0.0712,-1.308571 -12.06423,-1.666667 -56.481412,-1.666667 h -56.57212 l -9.48687,16.031874 c -5.21778,8.817531 -9.12492,16.617527 -8.68252,17.333337 0.50129,0.81111 20.79472,1.30146 53.86181,1.30146 52.973032,0 53.064612,-0.005 57.554472,-3.030539 z M 40.585568,45.532873 C 39.849458,44.341815 50.029558,25.8184 58.281808,13.333333 61.614668,8.2909485 64.987448,5.0627937 69.078098,3 c 5.87488,-2.9625273 6.61792,-3 59.486852,-3 52.14369,0 53.62915,0.071953 57.05081,2.7634401 1.93223,1.5198921 3.51315,4.0990154 3.51315,5.731385 0,1.6323699 -4.65,10.8788839 -10.33333,20.5478089 l -10.33334,17.579865 -63.58797,0.02208 C 69.900878,46.656729 40.970968,46.156459 40.585568,45.532873 Z M 173.1925,25.409716 c 5.23685,-8.75799 9.12948,-16.5579892 8.65029,-17.3333332 -0.58872,-0.9525584 -18.03315,-1.4081 -53.79257,-1.4047321 -49.705392,0.00468 -53.174642,0.1594629 -57.090242,2.5470944 -3.79504,2.3141159 -20.49773,27.4469279 -20.49773,30.8432699 0,0.786238 21.5978,1.271318 56.604352,1.271318 h 56.60436 z"
     id="path196"
     inkscape:connector-curvature="0" />
</svg>
