<?xml version="1.0" encoding="UTF-8" standalone="no"?>
<!-- Created with Inkscape (http://www.inkscape.org/) -->

<svg
   xmlns:dc="http://purl.org/dc/elements/1.1/"
   xmlns:cc="http://creativecommons.org/ns#"
   xmlns:rdf="http://www.w3.org/1999/02/22-rdf-syntax-ns#"
   xmlns:svg="http://www.w3.org/2000/svg"
   xmlns="http://www.w3.org/2000/svg"
   xmlns:sodipodi="http://sodipodi.sourceforge.net/DTD/sodipodi-0.dtd"
   xmlns:inkscape="http://www.inkscape.org/namespaces/inkscape"
   version="1.1"
   id="svg256"
   width="666.66669"
   height="548"
   viewBox="0 0 666.66669 548"
   sodipodi:docname="ben-icon-3.svg"
   inkscape:version="0.92.4 (unknown)">
  <path
     style="stroke-width:1.33333337"
     d="m 476.00002,544.86525 c 0,-2.95202 -5.19167,-14.09046 -8.3725,-17.9627 C 463.82351,522.27164 456.16279,520 444.3498,520 c -11.93394,0 -15.76793,-1.26791 -19.97405,-6.60548 -2.48608,-3.15483 -2.05872,-6.15088 2.29093,-16.06119 2.2,-5.01249 4,-10.96306 4,-13.22348 0,-4.8366 -4.04531,-9.43261 -8.33333,-9.4678 -1.65,-0.0136 -93.50643,-0.003 -204.12542,0.0243 -110.61897,0.0269 -204.96898,-0.34487 -209.66667,-0.82616 L 0,472.96508 V 241.81588 10.666667 h 3.73334 c 4.73791,0 6.93333,-2.195422 6.93333,-6.933334 V 0 h 322.66667 322.66668 v 3.428572 c 0,4.373946 2.86415,7.238095 7.2381,7.238095 h 3.42857 V 237.33333 464 h -3.83675 c -2.1102,0 -4.57765,0.89275 -5.48321,1.98389 -4.21685,5.08099 -10.55516,7.40623 -23.53612,8.63435 -10.79588,1.0214 -13.54201,1.73905 -15.39072,4.02211 -2.61942,3.23484 -2.44087,4.53429 2.15253,15.66649 3.7173,9.00892 4.25742,14.41312 1.94724,19.4834 C 620.3224,518.61269 615.86354,520 602.56113,520 c -16.6698,0 -19.7368,1.52805 -25.7334,12.82104 -2.65524,5.00044 -4.82771,10.46133 -4.82771,12.13533 0,2.92682 -0.42824,3.04363 -11.15777,3.04363 h -11.15778 l -0.71914,-5.36165 c -0.91088,-6.79111 -18.9298,-43.41694 -21.92552,-44.5665 -3.32859,-1.27729 -8.36494,3.11747 -14.16053,12.35664 -5.53025,8.81616 -12.79173,26.24378 -13.8492,33.23818 L 498.37494,548 h -11.18747 c -10.8554,0 -11.18745,-0.093 -11.18745,-3.13475 z m 13.88673,-41.11937 c 6.57484,-5.41953 12.77993,-15.163 12.77993,-20.06753 0,-5.07043 -5.09445,-9.95292 -11.51769,-11.0385 -2.83193,-0.47862 -8.60136,-2.01838 -12.82095,-3.4217 -10.26297,-3.41318 -12.17596,-3.24278 -16.1122,1.43518 -3.39661,4.03666 -7.05064,17.24802 -5.72554,20.70114 0.39222,1.02212 3.29236,3.17122 6.44476,4.77582 3.1524,1.60459 8.08962,4.9317 10.97162,7.39358 6.52059,5.57005 9.44272,5.61065 15.98007,0.22201 z m 84.77994,-1.66645 c 5.5,-2.49592 11.73277,-6.0916 13.85061,-7.99038 3.56533,-3.19657 3.79077,-3.95762 3.04285,-10.27266 -1.58952,-13.42092 -6.70558,-16.85171 -21.50641,-14.42204 -22.47991,3.69025 -27.65531,10.36961 -19.94841,25.74534 6.67817,13.32335 9.03014,13.98788 24.56136,6.93974 z M 537.39459,456.635 c 2.39871,-1.24043 8.5252,-3.40919 13.61443,-4.81949 11.387,-3.1555 15.23793,-5.72839 30.31184,-20.25196 11.63528,-11.21051 11.97159,-11.71046 15.36807,-22.84576 2.51405,-8.24231 4.0942,-11.42286 5.7251,-11.52358 1.23896,-0.0765 4.54072,-0.28124 7.33726,-0.45496 6.15192,-0.38216 9.25449,-3.40596 11.44611,-11.15548 0.8943,-3.16225 3.75004,-8.1006 6.34606,-10.9741 9.1756,-10.1563 9.3749,-11.9861 9.9411,-91.27634 0.27753,-38.86666 0.35705,-87.06808 0.1767,-107.11424 l -0.3279,-36.44757 -4.33334,-4.02189 c -9.22773,-8.56454 -18.71529,-14.3124 -24.90244,-15.0867 -11.07041,-1.38541 -15.29457,-3.20872 -28.74097,-12.4057 C 567.2479,99.975207 565.47003,98.198837 559.65951,88.576749 556.14665,82.759537 551.99625,73.8 550.43638,68.666667 545.86647,53.627599 538.09641,37.894912 533.87083,35.125032 c -3.4098,-2.235137 -8.47757,-2.549465 -55.81057,-3.461641 -28.63314,-0.551802 -121.31793,-0.694146 -205.9662,-0.31632 -143.31027,0.639662 -154.18044,0.847265 -157.89297,3.015497 -4.31819,2.521957 -4.71756,3.487495 -8.27756,20.012367 -1.96393,9.116144 -2.12533,12.404189 -0.9256,18.855417 1.6031,8.620271 0.6936,14.828003 -3.11778,21.280155 C 98.81377,99.701487 78.2396,113.4646 66.9071,117.90577 56.56018,121.9607 38.62425,132.45416 34.45416,136.89244 l -3.12082,3.32153 -0.35745,103.26896 c -0.25304,73.10824 0.0704,104.0683 1.10732,106.00588 2.46065,4.59776 9.80599,6.8067 19.26558,5.79367 11.74513,-1.2578 20.5599,1.64909 35.59731,11.73909 11.27363,7.56454 12.81389,9.12351 17.13311,17.3413 2.61023,4.96624 7.58257,11.90953 11.04964,15.42953 4.92786,5.00308 7.27313,9.00732 10.74491,18.34548 2.44263,6.57003 5.71226,14.43708 7.26584,17.48236 5.37952,10.54473 -6.69098,9.71309 140.97728,9.71309 130.60953,0 132.23112,-0.0323 135.61435,-2.69345 3.56226,-2.80208 5.19702,-8.53356 6.95437,-24.38203 0.47217,-4.25817 2.62215,-11.51097 4.77772,-16.11733 2.15557,-4.60636 3.71483,-9.52239 3.46503,-10.92452 -0.24982,-1.40213 -1.2427,-5.93829 -2.20642,-10.08036 -1.6705,-7.17981 -1.56502,-8.11251 2.26195,-20 2.20779,-6.85793 4.40092,-15.97065 4.87363,-20.25048 0.47271,-4.27983 1.76373,-9.53016 2.86895,-11.66743 2.71032,-5.24117 38.91536,-41.66785 43.94022,-44.2092 2.2,-1.11266 8.5,-2.76477 14,-3.67136 5.5,-0.90658 13,-2.79122 16.66667,-4.18809 11.37855,-4.33483 19.90092,-4.50372 31.59384,-0.62611 5.64328,1.87142 14.26862,4.04288 19.16742,4.82547 11.77174,1.88055 15.47874,3.98452 21.8212,12.38505 2.9183,3.86527 9.23962,10.50275 14.04737,14.74996 12.09895,10.68831 14.78087,16.3168 16.27647,34.15907 0.51362,6.12753 2.03814,12.55691 3.95193,16.66667 4.79259,10.29177 3.96743,14.19064 -2.266,10.70682 -1.7924,-1.00174 -5.25383,-2.85484 -7.69208,-4.11798 -6.20443,-3.21424 -8.01116,-6.59144 -10.2066,-19.07851 -1.05341,-5.99148 -2.35517,-11.62693 -2.8928,-12.52323 -3.00028,-5.00186 -21.92331,-24.21854 -26.46741,-26.87814 -2.93334,-1.71686 -9.83334,-4.42195 -15.33334,-6.01134 -5.5,-1.58937 -12.26214,-3.75612 -15.02698,-4.81496 -7.71838,-2.9559 -12.14663,-2.44541 -32.18803,3.71068 L 483.57,306 l -14.785,14.79051 -14.78498,14.7905 -5.66667,19.27827 c -3.11667,10.60305 -5.66667,20.64609 -5.66667,22.31788 0,4.39533 8.60443,32.11819 12.54466,40.41797 1.84642,3.88935 5.02922,8.26676 7.0729,9.72759 3.64514,2.60556 10.07803,8.87916 16.07356,15.67552 1.88646,2.13843 7.40504,4.94573 14.66667,7.46095 6.40321,2.21788 14.94221,5.28809 18.97555,6.82268 8.46928,3.22237 18.40155,2.96936 25.39457,-0.64687 z m -26.06936,-19.7442 c -8.71809,-2.85751 -26.64245,-12.68931 -30.25428,-16.59495 -1.84588,-1.99605 -6.74199,-9.28258 -10.88021,-16.19228 l -7.52406,-12.5631 v -12.93594 c 0,-14.52144 1.5752,-20.34165 8.23519,-30.42837 2.43732,-3.69136 5.63148,-8.65037 7.09815,-11.02001 2.57037,-4.15288 11.33885,-10.41226 25.33333,-18.08422 6.07707,-3.33153 7.81547,-3.63808 19.65623,-3.46621 8.34536,0.1212 14.30425,0.87227 16.66667,2.10087 2.02241,1.05177 6.9771,3.60309 11.01044,5.66958 8.46074,4.3349 21.2196,16.50468 24.45772,23.32852 4.01025,8.45098 7.5426,23.13931 7.52508,31.29107 -0.0176,8.19455 -3.33888,20.94103 -7.64198,29.32861 -1.32857,2.58964 -5.8353,8.19467 -10.01496,12.45562 -13.74796,14.01532 -38.77085,21.9934 -53.66732,17.11081 z M 268.33474,313.36987 c -6.40197,-2.90598 -9.73381,-8.18262 -7.45517,-11.80675 0.77108,-1.22639 3.26669,-3.32221 5.54581,-4.6574 3.84895,-2.25485 8.61024,-2.4276 66.90796,-2.4276 58.29773,0 63.05902,0.17275 66.90797,2.4276 2.27912,1.33519 4.77473,3.43101 5.54581,4.6574 2.27864,3.62413 -1.0532,8.90077 -7.45517,11.80675 -5.32358,2.41646 -9.24383,2.57157 -64.99861,2.57157 -55.75477,0 -59.67502,-0.15511 -64.9986,-2.57157 z M 140.94886,242.65041 c -6.13416,-4.82513 -5.94831,-13.92788 0.35324,-17.30036 3.58656,-1.91946 380.47593,-1.91946 384.06249,0 6.74635,3.61054 6.47659,13.15956 -0.49181,17.4086 -4.09779,2.49868 -9.0508,2.56484 -192.35962,2.5697 -186.51825,0.005 -188.18318,-0.0184 -191.5643,-2.67794 z m 1.71781,-51.59633 c -7.55847,-2.7792 -8.84128,-10.41793 -2.76923,-16.48997 3.86286,-3.86287 4.04325,-3.89896 20.33334,-4.06951 22.78136,-0.23848 29.11196,0.17017 33.99524,2.19447 8.59248,3.5619 9.58639,13.0728 1.77399,16.97553 -3.93731,1.96691 -8.31344,2.31513 -28,2.22807 -12.83334,-0.0568 -24.23334,-0.43412 -25.33334,-0.83859 z m 97.33334,-1.37957 c -3.73832,-1.87544 -4.75195,-3.23224 -5.09536,-6.8204 -0.51742,-5.40624 3.52055,-10.36066 9.66301,-11.85614 2.25446,-0.54888 66.10124,-0.69797 141.88173,-0.3313 l 137.78272,0.66666 3.21728,3.74102 c 3.97299,4.61973 4.14431,10.34 0.4109,13.719 -2.71714,2.4592 -7.26519,2.55084 -143.00001,2.88116 -131.43442,0.31984 -140.48518,0.19489 -144.86027,-2 z m -98.65238,-54.67658 c -6.35185,-3.18286 -8.12195,-8.43193 -4.48576,-13.30221 1.49152,-1.99773 4.15777,-4.03672 5.925,-4.53107 4.19928,-1.1747 376.89367,-1.1747 381.09295,0 1.76723,0.49435 4.43348,2.53334 5.925,4.53107 3.63619,4.87028 1.86609,10.11935 -4.48576,13.30221 -4.36314,2.18632 -16.29923,2.33126 -191.98572,2.33126 -175.68648,0 -187.62257,-0.14494 -191.98571,-2.33126 z"
     id="path297"
     inkscape:connector-curvature="0" />
</svg>
