<?xml version="1.0" encoding="UTF-8" standalone="no"?>
<!-- Created with Inkscape (http://www.inkscape.org/) -->

<svg
   xmlns:dc="http://purl.org/dc/elements/1.1/"
   xmlns:cc="http://creativecommons.org/ns#"
   xmlns:rdf="http://www.w3.org/1999/02/22-rdf-syntax-ns#"
   xmlns:svg="http://www.w3.org/2000/svg"
   xmlns="http://www.w3.org/2000/svg"
   xmlns:sodipodi="http://sodipodi.sourceforge.net/DTD/sodipodi-0.dtd"
   xmlns:inkscape="http://www.inkscape.org/namespaces/inkscape"
   version="1.1"
   id="svg266"
   width="666.99579"
   height="607.93262"
   viewBox="0 0 666.99579 607.93262"
   sodipodi:docname="ben-icon-2.svg"
   inkscape:version="0.92.4 (unknown)">
  <path
     style="stroke-width:1.33333337"
     d="m 246.9958,605.26592 c -2.36478,-2.36477 -2.66667,-4.44444 -2.66667,-18.36998 0,-12.05479 0.48225,-16.39184 2.0756,-18.66667 l 2.07561,-2.96335 h 97.22699 97.22699 l 2.14382,3.27187 c 1.74336,2.66069 2.06041,6.29263 1.6974,19.44351 -0.3911,14.16788 -0.7671,16.40581 -3.03458,18.06148 -2.1766,1.58929 -17.81372,1.88981 -98.33333,1.88981 -93.96739,0 -95.79469,-0.0495 -98.41183,-2.66667 z M 80.32913,602.02463 c -26.55015,-7.38765 -43.6585,-34.07161 -38.789,-60.49935 5.40094,-29.31197 32.63133,-49.22394 60.45566,-44.20766 35.30413,6.36476 54.58942,45.07853 38.41615,77.11757 -11.19544,22.17804 -36.97973,34.01793 -60.08281,27.58944 z m 167.89744,-69.98948 c -3.76137,-3.76136 -3.89744,-4.34021 -3.89744,-16.57987 0,-6.97533 0.57423,-14.19274 1.27605,-16.03869 3.03639,-7.98631 -9.85293,-7.55081 212.13925,-7.16752 l 202.81586,0.35019 3.21776,3.74101 c 2.96052,3.44195 3.21776,4.86249 3.21776,17.76924 0,13.72708 -0.0836,14.11187 -3.89744,17.92564 l -3.89743,3.89744 H 455.66247 252.124 Z m -1.82184,-163.06591 c -1.58785,-2.26698 -2.0756,-6.58372 -2.0756,-18.36998 0,-11.78627 0.48775,-16.103 2.0756,-18.36999 l 2.07561,-2.96335 h 97.22699 97.22699 l 2.14382,3.27187 c 1.74336,2.66069 2.06041,6.29263 1.6974,19.44351 -0.3911,14.16788 -0.7671,16.40581 -3.03458,18.06148 -2.17694,1.58954 -17.89471,1.88981 -98.9244,1.88981 h -96.33622 z m -169.63714,-2.2817 c -42.59932,-15.33592 -48.19508,-73.9172 -9.24127,-96.74566 25.94313,-15.20369 59.44369,-4.68092 73.04308,22.94336 5.51679,11.2062 6.79037,27.77359 3.0493,39.66738 -8.68896,27.62448 -40.2173,43.7232 -66.85111,34.13492 z m 171.45898,-70.65239 c -3.78235,-3.78233 -3.89685,-4.28437 -3.87779,-17 0.0229,-15.30468 1.47875,-19.16181 8.01739,-21.24227 3.33255,-1.06034 61.19744,-1.2904 206.53577,-0.82114 l 201.90612,0.6519 3.09388,3.09387 c 2.84792,2.84792 3.09387,4.21976 3.09387,17.25704 0,13.87625 -0.0789,14.24212 -3.89744,18.0606 l -3.89743,3.89744 H 455.66247 252.124 Z M 62.28786,150.66575 C 60.79849,150.06195 46.17444,135.66468 29.78996,118.6718 L 0,87.775666 0.6952,81.607838 C 1.337,75.914026 2.359,74.48547 13.99357,63.019634 25.93924,51.247206 26.89432,50.599258 32.30128,50.599258 c 5.35735,0 6.4042,0.684294 17.19954,11.242861 C 61.61535,73.690952 65.58631,76.087122 71.29829,74.995208 73.6469,74.546243 86.52953,62.546974 110.43946,38.537947 130.04164,18.85453 147.77589,2.0473666 149.8489,1.1886964 c 7.24767,-3.0020778 11.85613,-0.75048379 24.07493,11.7624526 6.25587,6.406459 11.81327,13.050273 12.34978,14.764027 2.56629,8.197479 1.66589,9.28485 -56.27984,67.966115 -52.9466,53.618669 -55.89251,56.364169 -60.33131,56.226739 -2.56667,-0.0795 -5.88524,-0.63848 -7.3746,-1.24228 z m 184.11687,-13.69651 c -1.58785,-2.26698 -2.0756,-6.58372 -2.0756,-18.36998 0,-11.78627 0.48775,-16.103 2.0756,-18.37 l 2.07561,-2.963336 h 97.22699 97.22699 l 2.14382,3.271866 c 1.74336,2.66069 2.06041,6.29263 1.6974,19.44351 -0.3911,14.16788 -0.7671,16.40581 -3.03458,18.06148 -2.17694,1.58954 -17.89471,1.88981 -98.9244,1.88981 h -96.33622 z m 1.82184,-72.934085 c -3.76137,-3.761364 -3.89744,-4.340221 -3.89744,-16.579867 0,-6.975337 0.59619,-14.250512 1.32485,-16.167056 2.85827,-7.517798 0.001,-7.355745 129.63233,-7.354468 65.47356,6.47e-4 156.51987,0.40041 202.32514,0.888363 l 83.28229,0.887189 3.05104,3.051031 c 2.79618,2.796184 3.05103,4.234057 3.05103,17.214203 0,13.876252 -0.0789,14.242124 -3.89744,18.060605 l -3.89743,3.897436 H 455.66247 252.124 Z"
     id="path276"
     inkscape:connector-curvature="0" />
</svg>
