<?xml version="1.0" encoding="UTF-8" standalone="no"?>
<!-- Created with Inkscape (http://www.inkscape.org/) -->

<svg
   xmlns:dc="http://purl.org/dc/elements/1.1/"
   xmlns:cc="http://creativecommons.org/ns#"
   xmlns:rdf="http://www.w3.org/1999/02/22-rdf-syntax-ns#"
   xmlns:svg="http://www.w3.org/2000/svg"
   xmlns="http://www.w3.org/2000/svg"
   xmlns:sodipodi="http://sodipodi.sourceforge.net/DTD/sodipodi-0.dtd"
   xmlns:inkscape="http://www.inkscape.org/namespaces/inkscape"
   version="1.1"
   id="svg246"
   width="666.66669"
   height="666.66669"
   viewBox="0 0 666.66669 666.66669"
   sodipodi:docname="ben-icon-1.svg"
   inkscape:version="0.92.4 (unknown)">
  <path
     style="stroke-width:1.33333337"
     d="m 320.00001,662.69258 c 0,-4.54556 -6.96004,-16.05698 -13.31731,-22.02589 -5.14141,-4.82733 -9.34936,-12.63459 -9.34936,-17.34643 0,-5.85377 3.8089,-11.23111 11.3906,-16.08107 11.78239,-7.5371 11.74679,-7.41952 11.4596,-37.8559 l -0.24934,-26.42418 4.13521,-3.47954 c 5.62485,-4.73302 12.90978,-4.72732 18.54508,0.0145 l 4.15242,3.49401 -0.38346,26.23047 c -0.44354,30.34177 -0.44325,30.34273 11.70667,38.11493 7.52661,4.81472 11.24323,10.44403 11.24323,17.02937 0,3.53642 -6.0873,13.6415 -10.62464,17.6372 -5.06639,4.46153 -12.04203,16.4482 -12.04203,20.6925 v 3.97411 H 333.33334 320.00001 Z M 103.8475,569.33534 c -6.16342,-3.25723 -9.64648,-10.28753 -8.8178,-17.79807 2.00252,-18.14921 5.38737,-37.80952 7.06961,-41.06263 3.08975,-5.97492 7.77044,-6.29989 17.31194,-1.20196 6.07184,3.24415 9.00527,4.11242 11.38413,3.3696 5.68286,-1.77449 13.57333,-8.39196 27.20463,-22.81564 7.33333,-7.75961 15.55942,-15.24498 18.28021,-16.63417 10.16691,-5.19103 18.38645,-2.09021 18.38645,6.93627 0,8.31886 -3.94305,14.11249 -20.20826,29.69256 -22.40135,21.45773 -24.5044,26.09079 -17.12507,37.72679 4.81196,7.58766 5.01723,11.03146 0.88871,14.91 -3.2219,3.02681 -7.07368,3.9436 -31.55538,7.51068 -17.12403,2.49505 -16.88693,2.50162 -22.81917,-0.63343 z m 436.81919,-0.11169 c -4.4,-0.68071 -12.47324,-1.84568 -17.94053,-2.58883 -12.28998,-1.67053 -16.67204,-4.94425 -15.59074,-11.64747 0.38558,-2.3903 1.93785,-6.08292 3.44949,-8.20582 3.20661,-4.50328 3.53873,-10.7548 0.84192,-15.84772 -1.04857,-1.98026 -8.61261,-10.20046 -16.80896,-18.26713 -19.32683,-19.02105 -22.61785,-23.48226 -22.61785,-30.66006 0,-6.9349 3.0199,-10.0066 9.83786,-10.0066 7.51384,0 10.74494,2.31397 28.8288,20.646 9.16667,9.29245 18.28687,17.74856 20.26713,18.79136 5.24105,2.7599 10.35089,2.32289 16.39954,-1.40258 5.31639,-3.27445 10.6705,-4.20689 13.48063,-2.3477 4.58397,3.03277 9.14981,25.5696 9.17531,45.28899 0.009,7.55396 -0.37198,8.69194 -4.19874,12.51716 -4.84169,4.83972 -11.53213,5.83312 -25.12386,3.7304 z M 329.37098,507.85023 c -4.0609,-1.62203 -5.32417,-3.50536 -5.35056,-7.97689 -0.0276,-4.66856 3.85748,-7.87332 9.54459,-7.87332 5.50152,0 9.10167,3.30009 9.10167,8.34308 0,3.3456 -2.99523,7.65692 -5.31952,7.65692 -0.62097,0 -1.92812,0.26248 -2.90476,0.58329 -0.97665,0.32081 -3.25879,-0.009 -5.07142,-0.73308 z m -6.64528,-44.62004 c -2.5342,-1.09933 -6.4342,-3.39171 -8.66666,-5.09416 -2.23247,-1.70245 -7.95903,-5.05692 -12.7257,-7.45436 -4.76666,-2.39745 -10.9202,-6.13481 -13.67453,-8.30525 -2.75432,-2.17046 -8.75432,-5.75707 -13.33333,-7.97026 -4.579,-2.2132 -11.08435,-6.04419 -14.4563,-8.51331 -3.37196,-2.46913 -9.98598,-6.21901 -14.69784,-8.33308 -4.71185,-2.11406 -11.33131,-6.17985 -14.70991,-9.03509 -3.3786,-2.85523 -8.22408,-6.79471 -10.76774,-8.75439 -8.82275,-6.7972 -8.81168,-6.71873 -9.17715,-65.1161 -0.24656,-39.39926 0.0911,-53.90827 1.34104,-57.63598 1.92513,-5.74099 10.50371,-13.744 23.83256,-22.23357 24.36288,-15.5175 36.27855,-22.78463 37.35919,-22.78463 0.65436,0 7.09735,-3.89492 14.31772,-8.65538 7.22039,-4.76045 14.36659,-9.04482 15.88047,-9.52082 1.51386,-0.476 6.12994,-3.15419 10.25796,-5.95151 14.20301,-9.62461 25.81108,-9.77841 38.70808,-0.51283 3.44403,2.47428 9.45489,6.10454 13.35749,8.06724 3.90259,1.9627 9.79563,5.52068 13.09563,7.90663 3.3,2.38595 9.3,5.99508 13.33333,8.02029 4.03334,2.02522 10.63334,5.89326 14.66667,8.59565 4.03333,2.7024 10.93333,6.94746 15.33333,9.43348 12.35151,6.97865 28.38507,19.56518 30.98717,24.3253 2.1314,3.89907 2.34617,9.29612 2.34617,58.95862 0,49.76128 -0.21281,55.08541 -2.37157,59.33333 -2.69239,5.29796 -20.2415,18.98535 -31.62843,24.66854 -4.03334,2.01302 -10.0697,5.6538 -13.41414,8.09061 -3.34445,2.4368 -9.34445,6.04062 -13.33333,8.00847 -3.98889,1.96784 -10.25253,5.78229 -13.9192,8.47653 -3.66667,2.69426 -9.66667,6.28364 -13.33333,7.97643 -3.66667,1.6928 -9.4519,5.11421 -12.85606,7.60317 -11.72542,8.57304 -21.98509,10.64311 -31.75159,6.40643 z m 27.69422,-143.43562 c 7.10239,-3.77965 15.91343,-9.07625 19.58009,-11.77021 3.66667,-2.69396 13.79968,-9.65152 22.5178,-15.46123 8.71814,-5.80972 16.75496,-11.94032 17.85963,-13.62357 2.95236,-4.4987 0.0759,-8.86215 -8.65969,-13.13606 -5.85034,-2.86229 -8.32954,-3.35685 -13.66194,-2.7253 -7.54186,0.89321 -17.36742,5.53393 -28.72246,13.5659 -4.4,3.11235 -11,7.18062 -14.66667,9.0406 -10.93733,5.54819 -30.28518,18.1291 -32.29662,21.00084 -2.40038,3.42703 -1.26129,6.88476 4.00194,12.14799 9.87089,9.87091 16.93086,10.07017 34.04792,0.96104 z m -61.96011,-30.46621 c 3.47337,-2.20275 9.32523,-5.53028 13.00412,-7.39452 3.67889,-1.86424 10.51208,-6.00698 15.18487,-9.2061 4.67278,-3.1991 12.8565,-8.10796 18.18604,-10.90856 22.07256,-11.5988 25.77817,-21.45672 10.89805,-28.99172 -9.94353,-5.03521 -23.55313,-1.75325 -40.16623,9.68607 -4.16166,2.8656 -16.26665,10.10083 -26.89998,16.07825 -18.91979,10.6356 -24,14.49207 -24,18.21876 0,2.74962 8.71997,11.8872 13.67501,14.32995 6.68673,3.29643 12.95273,2.73201 20.11812,-1.81213 z m -79.42456,173.18318 c -6.8867,-2.6112 -7.64428,-14.93238 -1.22844,-19.97907 6.37969,-5.01827 16.48496,-0.0901 18.28406,8.91668 1.60128,8.01649 -8.24521,14.40299 -17.05562,11.06239 z m 237.34146,-2.16286 c -4.20568,-2.60818 -4.94521,-4.81044 -3.47519,-10.34866 3.34374,-12.59732 19.80872,-10.50164 19.74475,2.51314 -0.0241,4.8997 -0.96164,6.55184 -4.89193,8.62059 -3.97098,2.09015 -7.08823,1.87505 -11.37763,-0.78507 z M 37.98162,369.30479 C 35.77151,368.635 30.67151,365.17399 26.64829,361.61364 15.71902,351.94181 9.26467,348.00001 4.35716,348.00001 H 0 v -14.66667 -14.66666 h 4.0931 c 4.60212,0 13.25862,-5.39003 22.87011,-14.24022 13.33338,-12.27729 23.52183,-11.17717 33.48378,3.61548 7.70149,11.43606 7.22508,11.2914 37.18801,11.2914 h 26.30166 l 3.62142,3.62004 c 2.98745,2.98634 3.62141,4.80344 3.62141,10.37996 0,5.57599 -0.63411,7.39393 -3.62065,10.37997 l -3.62065,3.62004 H 97.63576 c -29.93843,0 -29.49444,-0.13402 -37.13277,11.20825 -6.87934,10.21523 -13.65094,13.45144 -22.52137,10.76319 z m 578.46411,-1.91202 c -2.58471,-1.1244 -6.02796,-4.66098 -8.88238,-9.12314 -7.53921,-11.7857 -6.94656,-11.60295 -37.62758,-11.60295 h -26.80424 l -3.23243,-3.44075 c -4.57179,-4.86645 -4.57179,-14.91872 0,-19.78517 l 3.23243,-3.44075 h 26.80424 c 30.64225,0 30.0991,0.16596 37.5437,-11.47183 9.18094,-14.3521 19.13718,-14.97144 32.92901,-2.04837 9.15274,8.57621 17.2823,13.5202 22.23172,13.5202 h 4.02649 v 13.33333 13.33334 h -4.17596 c -5.12697,0 -11.53868,3.77596 -21.15737,12.45992 -10.96475,9.89921 -16.73106,11.81443 -24.88763,8.26617 z M 160.00001,341.33335 c -6.01268,-6.01268 -1.88592,-18.66667 6.08765,-18.66667 5.04456,0 8.12271,2.10604 9.70275,6.63852 3.71917,10.66884 -8.12644,19.69211 -15.7904,12.02815 z m 334.09725,-0.75991 c -3.049,-3.04899 -3.89612,-7.8719 -2.01102,-11.44924 2.13162,-4.04512 3.78263,-5.07879 8.15187,-5.10378 5.01441,-0.0287 7.76191,3.26786 7.76191,9.31292 0,2.89755 -0.91476,6.05762 -2.09524,7.2381 -2.69391,2.69391 -9.11454,2.695 -11.80752,10e-4 z M 206.86681,222.57433 c -5.14427,-5.52172 -4.61467,-15.49816 0.98172,-18.49326 8.14488,-4.359 18.81814,0.91248 18.81814,9.29423 0,9.51927 -13.61037,15.84267 -19.79986,9.19903 z m 238.92711,0.18433 c -10.55426,-6.43556 -4.12332,-21.82631 8.15735,-19.52244 6.34801,1.19089 8.71541,3.97595 8.71541,10.25296 0,3.84801 -0.89601,6.19472 -3.27273,8.57143 -3.93456,3.93457 -7.95385,4.14086 -13.60003,0.69805 z M 177.33334,193.73102 c -2.56667,-1.29311 -11.86667,-9.77497 -20.66667,-18.84859 -15.21041,-15.68336 -22.95629,-21.57896 -28.28021,-21.52482 -1.31255,0.0133 -5.02674,1.81334 -8.25376,4 -6.70305,4.54204 -13.295,5.18134 -16.53299,1.6034 -2.61964,-2.89467 -6.26637,-16.36918 -6.26637,-23.15397 0,-2.73132 -0.87752,-9.13761 -1.95004,-14.2362 -2.96598,-14.09976 0.42403,-22.415753 10.74447,-26.357163 5.4689,-2.088592 6.68359,-2.100607 16.22518,-0.160492 5.67255,1.153412 14.3048,2.44897 19.1828,2.879018 12.14666,1.07086 16.82378,2.939607 19.28907,7.706957 1.99003,3.84829 1.89767,4.37024 -2.20269,12.4486 -6.76338,13.32494 -6.07583,14.92727 15.68554,36.55529 9.94796,9.88701 18.89836,19.91773 19.88978,22.2905 2.27457,5.44384 2.3151,12.5225 0.0891,15.56672 -2.50829,3.4303 -11.31792,4.06984 -16.95321,1.23075 z m 300.34508,1.23089 c -3.58815,-0.57352 -7.01174,-5.081 -7.01174,-9.2316 0,-7.17062 4.41482,-13.54464 19.72452,-28.47785 24.32671,-23.72847 25.51331,-26.1331 18.84015,-38.17936 -7.83241,-14.13892 -4.09497,-17.89308 21.1041,-21.198511 8.61552,-1.130122 18.12962,-2.382684 21.14248,-2.783471 8.27136,-1.100304 14.88677,2.553892 18.20542,10.056232 2.36014,5.33549 2.49588,6.98372 1.21584,14.76269 -0.79249,4.81615 -2.12046,13.9325 -2.95104,20.25854 -1.97968,15.07828 -4.7766,19.83143 -11.66949,19.83143 -3.33977,0 -6.64972,-1.14786 -9.61197,-3.33334 -9.66646,-7.13169 -17.90372,-3.10749 -37.9993,18.564 -15.46152,16.67404 -22.41531,21.10164 -30.98897,19.73124 z M 328.00001,175.14199 c -5.64633,-2.20793 -7.13689,-10.67176 -2.66667,-15.14198 1.77778,-1.77778 4.44444,-2.66667 8,-2.66667 8.97026,0 13.81874,8.39537 8.72802,15.11296 -1.89529,2.50097 -10.39318,4.13009 -14.06135,2.69569 z m -4.92565,-47.69376 -3.74102,-3.21844 V 97.781561 c 0,-29.639647 -0.36344,-30.997829 -9.80462,-36.640432 -7.44419,-4.449078 -10.64259,-7.769451 -12.28876,-12.757433 -2.31736,-7.021648 -0.5471,-12.420444 6.92565,-21.121307 9.54321,-11.111596 14.50107,-19.1541633 14.50107,-23.5234297 V 0 h 14.66666 14.66667 v 3.7389593 c 0,4.4309527 5.24154,13.0661427 13.73795,22.6326547 12.05764,13.576258 11.42885,23.406534 -2.1068,32.936733 -12.531,8.822845 -12.29781,8.093321 -12.29781,38.473214 v 26.448229 l -3.74102,3.21844 c -2.85161,2.45327 -5.29064,3.21844 -10.25899,3.21844 -4.96834,0 -7.40737,-0.76517 -10.25898,-3.21844 z"
     id="path318"
     inkscape:connector-curvature="0" />
</svg>
