<?xml version="1.0" encoding="UTF-8" standalone="no"?>
<!-- Created with Inkscape (http://www.inkscape.org/) -->

<svg
   xmlns:dc="http://purl.org/dc/elements/1.1/"
   xmlns:cc="http://creativecommons.org/ns#"
   xmlns:rdf="http://www.w3.org/1999/02/22-rdf-syntax-ns#"
   xmlns:svg="http://www.w3.org/2000/svg"
   xmlns="http://www.w3.org/2000/svg"
   xmlns:sodipodi="http://sodipodi.sourceforge.net/DTD/sodipodi-0.dtd"
   xmlns:inkscape="http://www.inkscape.org/namespaces/inkscape"
   version="1.1"
   id="svg71"
   width="266.66666"
   height="252"
   viewBox="0 0 266.66666 252"
   sodipodi:docname="char-icon-1.svg"
   inkscape:version="0.92.4 (unknown)">

  <path
     style="stroke-width:1.33333337"
     d="m 138.66666,250.71805 c 0,-0.70506 -2.55,-1.92757 -5.66666,-2.71669 C 107.86055,241.6362 82.1546,221.23452 68.59779,196.88815 L 62.16371,185.33333 H 44.32753 c -18.34709,0 -22.9942,-1.03345 -22.9942,-5.11357 0,-4.78037 2.71642,-5.55309 19.52131,-5.55309 9.07437,0 16.67522,-0.57264 17.11838,-1.28968 0.99284,-1.60646 -0.54436,-13.73203 -2.04962,-16.16759 -0.78352,-1.26776 -4.4791,-1.83029 -12.51913,-1.90567 -12.18908,-0.11426 -14.55579,-1.16512 -13.8505,-6.14994 0.424,-2.9967 1.05534,-3.187 12.67465,-3.82046 6.72564,-0.36666 12.66329,-1.10432 13.19479,-1.63924 1.89596,-1.90813 3.21829,-14.7845 1.70549,-16.60732 -1.11058,-1.33817 -7.54837,-1.75344 -27.18291,-1.75344 -14.15023,0 -26.67677,-0.36419 -27.83674,-0.80932 C 0.88875,124.05574 0,122.15945 0,120.02401 c 0,-4.98746 2.40011,-5.35734 34.76316,-5.35734 H 61.193 l 3.40349,-6.77622 C 70.43268,96.270865 70.196,96 54.20664,96 41.97588,96 40.1319,95.689065 37.92936,93.255285 c -1.90249,-2.102233 -2.15153,-3.27263 -1.06391,-5 1.19508,-1.898052 4.14297,-2.306864 18.61061,-2.580914 9.45483,-0.179095 18.3906,-0.614643 19.85727,-0.967884 1.46666,-0.353242 6.91371,-4.706708 12.10455,-9.674372 8.59292,-8.223474 26.61277,-20.204974 33.22878,-22.09401 5.89362,-1.682774 14.74266,-5.227932 16.32283,-6.539356 3.61595,-3.000977 1.84813,-8.439305 -4.98949,-15.349118 -5.86376,-5.925667 -6.66667,-7.40876 -6.66667,-12.314331 0,-6.518297 1.63392,-10.020856 7.02943,-15.068633 L 136.28201,0 h 25.23677 25.23678 l 4.44598,4.44599 c 9.45736,9.457363 8.85443,19.097385 -1.72626,27.600257 -4.29222,3.449324 -5.47087,5.288158 -5.45487,8.51024 0.0272,5.485846 1.11761,6.888016 6.64625,8.546888 12.72243,3.81737 20.4958,7.514356 32.27215,15.348522 17.15557,11.412663 34.51668,35.573363 39.6756,55.214773 0.8186,3.11666 2.06524,5.66666 2.7703,5.66666 0.77154,0 1.28195,9.29028 1.28195,23.33334 0,14.04305 -0.51041,23.33333 -1.28195,23.33333 -0.70506,0 -1.95782,2.51008 -2.78393,5.57797 -1.90903,7.0896 -8.49928,21.08583 -12.05976,25.61224 -3.23308,4.1102 -7.2318,4.50178 -9.16097,0.89708 -1.46078,-2.72949 -0.0475,-8.22312 3.10894,-12.08485 2.37936,-2.91103 6.91756,-15.30541 9.37703,-25.6098 9.13037,-38.25345 -13.10936,-83.109869 -49.86603,-100.577277 -12.19205,-5.793878 -15.93091,-6.992692 -26.73641,-8.572666 -37.04246,-5.416324 -71.10712,8.443239 -92.6947,37.71381 -6.54223,8.870603 -9.82028,15.508903 -13.93124,28.211823 -4.22052,13.04142 -4.17445,36.58331 0.0986,50.38978 8.75411,28.28512 27.83967,49.19182 55.26376,60.53706 6.84411,2.83138 27.70159,7.13654 34.85271,7.1939 13.61985,0.1092 32.88692,-5.09346 47.61144,-12.85654 5.33861,-2.81462 7.02177,-3.15396 9.66666,-1.94886 7.27779,3.31598 2.47296,9.12502 -13.2517,16.02132 C 197.9879,245.52724 191.11382,248 189.60339,248 c -1.51044,0 -3.64624,0.9 -4.74624,2 -1.61686,1.61685 -6.23281,2 -24.09524,2 -13.25074,0 -22.09524,-0.51315 -22.09524,-1.28195 z M 173.28642,42.754321 c 1.78506,-3.33541 1.76379,-3.51363 -0.715,-5.992416 -2.57717,-2.577169 -19.17625,-2.957078 -21.63809,-0.495238 -1.72468,1.724677 -2.15984,6.729048 -0.71111,8.177777 0.48888,0.488889 5.56778,0.888889 11.28642,0.888889 8.91513,0 10.59432,-0.367697 11.77778,-2.579012 z M 184.4644,22.83674 c 2.81833,-2.341836 2.81641,-6.614813 -0.004,-9.731752 -1.95284,-2.157435 -4.52978,-2.438321 -22.37038,-2.438321 -21.95186,0 -26.09002,1.149244 -26.09002,7.245678 0,6.410804 3.48221,7.297444 27.4644,6.992972 13.6842,-0.17373 19.39682,-0.736445 21,-2.068577 z M 143.33333,226.0368 c -12.10267,-3.53992 -13.26391,-3.99916 -21.75838,-8.60479 -14.86379,-8.05901 -30.09262,-25.284 -35.64337,-40.31544 -4.92603,-13.33972 -6.24163,-31.60686 -3.33783,-46.3462 2.40686,-12.2169 10.33653,-26.31576 20.73958,-36.874705 16.20654,-16.449413 35.29149,-24.516632 58,-24.516632 22.70537,0 40.86272,7.568486 57.4674,23.953995 11.04753,10.901722 18.07325,23.105662 21.84589,37.947102 8.39236,33.01536 -10.24515,72.05223 -41.97996,87.92836 -15.42724,7.71787 -41.3536,10.91727 -55.33333,6.82831 z m 34.82672,-11.21545 c 13.28039,-3.45012 22.4131,-8.7116 32.6527,-18.81168 9.86414,-9.72971 15.0996,-18.87626 18.70388,-32.67634 3.08375,-11.80709 3.0724,-17.4729 -0.0605,-30.23174 -3.33584,-13.58509 -8.43407,-22.7061 -18.12277,-32.42264 C 183.90473,73.171537 139.49704,72.868121 111.96323,100 98.3671,113.39766 91.99999,128.91147 91.99999,148.64153 c 0,10.17679 0.63898,14.32852 3.28868,21.36812 13.09337,34.78587 48.26199,53.80288 82.87138,44.8117 z m -20.75444,-8.73426 c -2.21575,-2.66981 -1.21225,-10.18848 1.59439,-11.94581 3.42026,-2.14155 6.91084,0.56041 7.4243,5.74695 0.47676,4.81576 -1.59182,8.11177 -5.09097,8.11177 -1.28708,0 -3.05455,-0.8608 -3.92772,-1.91291 z m -5.5678,-45.13504 c -4.81169,-4.06357 -6.50448,-7.80649 -6.50448,-14.38196 0,-4.6862 -0.87444,-6.55386 -5.33333,-11.3912 -6.40367,-6.94715 -7.12286,-12.01228 -1.89203,-13.32513 2.81013,-0.7053 4.46081,0.11611 9,4.47858 4.85587,4.66683 6.54875,5.4371 13.38916,6.09221 l 7.83047,0.74992 7.50286,-6.92057 c 4.12658,-3.80631 7.80287,-7.22057 8.16954,-7.58723 0.36666,-0.36667 3.52268,-3.23456 7.01334,-6.3731 5.35894,-4.81833 6.75963,-5.48544 9,-4.28642 5.0938,2.72611 3.07668,6.73667 -10.16885,20.2184 -11.87069,12.08236 -12.77339,13.37449 -12.16453,17.41264 0.80229,5.321 -2.81191,13.04953 -7.55624,16.15814 -4.88068,3.19794 -13.99798,2.77699 -18.28591,-0.84428 z m 13.54113,-10.37061 c 2.97319,-5.55545 -5.12616,-9.07507 -8.49878,-3.6932 -1.00626,1.60571 -0.90634,2.80699 0.36041,4.33333 2.44343,2.94415 6.38609,2.63403 8.13837,-0.64013 z m -60.37803,3.15101 c -2.99943,-0.76425 -4.4642,-6.49934 -2.31988,-9.0831 0.90502,-1.09047 2.93852,-1.98268 4.51888,-1.98268 3.54342,0 8.80009,3.53169 8.80009,5.91234 0,3.38979 -6.31273,6.34751 -10.99909,5.15344 z m 105.33242,-0.47368 c -3.48083,-2.07548 -2.97554,-7.69 0.8489,-9.43253 3.35032,-1.52651 10.128,0.65363 11.07062,3.56101 1.3485,4.15936 -7.48952,8.51296 -11.91952,5.87152 z M 157.40025,100.7473 c -4.00227,-4.822437 1.26509,-13.737527 6.26641,-10.605997 4.86692,3.047374 3.10127,12.525367 -2.33333,12.525367 -1.28708,0 -3.05697,-0.86372 -3.93308,-1.91937 z m 70.7088,120.05077 c -0.93812,-1.13038 -1.27451,-3.22652 -0.77191,-4.81007 0.70073,-2.20781 1.791,-2.71929 5.11015,-2.39731 3.70834,0.35974 4.21937,0.89376 4.21937,4.40931 0,3.30976 -0.59489,4.06915 -3.44747,4.40075 -1.89609,0.2204 -4.19566,-0.5008 -5.11014,-1.60268 z M 2.33333,184.41423 C 0.78591,184.00985 0,182.49868 0,179.92764 c 0,-3.08388 0.72422,-4.0586 3.54078,-4.76552 2.60829,-0.65464 4.01288,-0.24307 5.33334,1.56277 2.29206,3.13459 2.25386,3.95666 -0.3027,6.5132 -2.1642,2.16422 -2.33436,2.1963 -6.23809,1.17614 z"
     id="path112"
     inkscape:connector-curvature="0" />
</svg>
