<?xml version="1.0" encoding="UTF-8" standalone="no"?>
<!-- Created with Inkscape (http://www.inkscape.org/) -->

<svg
   xmlns:dc="http://purl.org/dc/elements/1.1/"
   xmlns:cc="http://creativecommons.org/ns#"
   xmlns:rdf="http://www.w3.org/1999/02/22-rdf-syntax-ns#"
   xmlns:svg="http://www.w3.org/2000/svg"
   xmlns="http://www.w3.org/2000/svg"
   xmlns:sodipodi="http://sodipodi.sourceforge.net/DTD/sodipodi-0.dtd"
   xmlns:inkscape="http://www.inkscape.org/namespaces/inkscape"
   version="1.1"
   id="svg81"
   width="266.82501"
   height="298.76688"
   viewBox="0 0 266.82502 298.76688"
   sodipodi:docname="char-icon-3.svg"
   inkscape:version="0.92.4 (unknown)">

  <path
     style="stroke-width:1.33333325"
     d="m 191.76229,297.3871 c -0.25296,-0.75888 -3.09417,-2.28736 -6.31381,-3.39662 -13.62082,-4.69274 -26.78575,-16.66708 -33.96172,-30.89028 -1.94243,-3.85 -4.37915,-7 -5.41494,-7 -1.03578,0 -5.49652,2.4 -9.91274,5.33334 -4.41622,2.93333 -8.41401,5.33333 -8.88398,5.33333 -0.46997,0 -2.38004,1.2 -4.24461,2.66667 -1.86456,1.46666 -4.91865,2.66666 -6.78685,2.66666 -1.86969,0 -11.22965,-4.69949 -20.82019,-10.45349 -9.5829,-5.74943 -23.42346,-13.98927 -30.75679,-18.31076 -7.33333,-4.32149 -14.35077,-8.46743 -15.5943,-9.21317 -1.24353,-0.74575 -8.40207,-4.95591 -15.90785,-9.35591 -7.50579,-4.4 -15.56563,-9.2 -17.91077,-10.66666 -2.34514,-1.46667 -6.7366,-4.12715 -9.75882,-5.91219 L 0,204.9425 V 136.79939 68.656288 L 30.99999,50.13534 c 17.05,-10.186524 39.1,-23.318108 49,-29.181301 24.87951,-14.7346753 30.66667,-18.4608033 30.66667,-19.7450533 0,-2.241378 9.55819,-1.12490601 11.78628,1.37673 1.76715,1.984104 28.45456,18.2651633 84.44099,51.5144893 1.23481,0.733333 6.16672,3.600329 10.95977,6.371101 4.79307,2.770772 9.63677,6.354276 10.76381,7.963341 1.7616,2.515035 2.04915,10.519424 2.04915,57.040733 0,41.24777 0.39629,54.63029 1.66667,56.28163 0.91666,1.19156 4.87409,4.54881 8.79428,7.46056 8.53258,6.33764 16.4349,16.47696 19.63222,25.18977 1.28356,3.49775 3.1377,7.02568 4.1203,7.83985 2.72014,2.25392 2.52994,29.28244 -0.21347,30.33519 -1.1,0.4221 -2,1.59046 -2,2.59634 0,1.0059 -1.80799,5.447 -4.01776,9.86914 -6.59948,13.20673 -21.8638,26.59908 -33.07233,29.01645 -2.43288,0.52471 -4.74708,1.79744 -5.14266,2.82829 -0.5535,1.44243 -3.8864,1.87427 -14.46546,1.87427 -8.28745,0 -13.92887,-0.54792 -14.20616,-1.37977 z m 28.54304,-12.03398 c 29.22332,-9.6012 43.38818,-41.16676 30.66969,-68.34555 -2.20564,-4.71334 -6.26476,-11.06519 -9.02029,-14.11523 -6.01142,-6.65392 -21.07902,-14.2554 -30.77818,-15.52735 -16.80889,-2.2043 -37.44325,7.70606 -46.75399,22.45523 -17.74939,28.11685 -5.4411,63.98497 25.73126,74.98461 11.28113,3.98072 19.26243,4.12585 30.15151,0.54829 z m -29.02481,-10.64426 c -8.74259,-3.36426 -17.42771,-11.82566 -21.71626,-21.15692 -9.31204,-20.2616 1.17379,-45.63153 22.09568,-53.45943 11.09604,-4.15156 17.67339,-3.36874 17.67339,2.10344 0,3.61111 -3.46739,5.90426 -8.9276,5.90426 -2.07325,0 -6.7364,1.95 -10.36253,4.33333 -18.60626,12.22926 -18.4338,38.54669 0.32981,50.33024 11.3799,7.1466 27.33578,5.01292 36.45438,-4.8748 6.82639,-7.40218 8.07456,-10.53535 8.07456,-20.26879 0,-10.39629 -0.69081,-12.13635 -8.31581,-20.94634 -6.06831,-7.01139 -6.603,-11.62162 -1.43271,-12.35315 4.43726,-0.62783 11.61843,6.5996 16.34092,16.44617 12.37912,25.81088 -7.05038,56.78487 -35.49436,56.58417 -4.58681,-0.0324 -10.86685,-1.15965 -14.71947,-2.64218 z m 0.0447,-24.52995 c -3.40592,-3.21219 -4.7338,-5.51115 -4.42828,-7.66667 0.39624,-2.79546 1.0388,-3.04698 6.9844,-2.73388 6.41215,0.33768 6.73452,0.16478 15.53703,-8.33333 4.944,-4.77299 9.60453,-8.67816 10.35678,-8.67816 1.79371,0 5.55822,3.79835 5.55822,5.60817 0,2.42095 -24.35738,26.39183 -26.81736,26.39183 -1.27936,0 -4.5152,-2.06459 -7.19075,-4.58796 z m -80.65852,-1.95467 c 0.74814,-8.06436 3.55277,-11.22745 7.66667,-8.64656 1.62896,1.02195 2.45572,3.5565 2.73876,8.39603 0.48271,8.25377 2.71593,9.77048 8.3035,5.63941 2.11737,-1.56544 4.23771,-2.84625 4.71187,-2.84625 0.47418,0 3.19847,-1.85041 6.054,-4.11204 4.53328,-3.59043 5.19476,-4.81663 5.21472,-9.66667 0.0337,-8.20145 4.36568,-23.4443 8.54368,-30.06266 12.4525,-19.72603 29.9687,-29.49196 52.89684,-29.49196 6.44192,0 12.06559,-0.57117 12.49703,-1.26927 1.58722,-2.56818 0.94217,-100.173251 -0.67491,-102.12171 -0.84665,-1.02015 -5.47675,-4.05673 -10.28911,-6.747954 -4.81236,-2.691224 -10.83895,-6.31092 -13.39246,-8.043768 -2.55349,-1.732848 -5.61859,-3.150633 -6.81132,-3.150633 -1.19275,0 -8.45901,3.689002 -16.14728,8.197782 -20.40675,11.96754 -40.98415,24.174864 -44.61753,26.468884 -1.74224,1.1 -8.76123,5.217577 -15.59775,9.15017 -13.82322,7.951579 -21.09671,13.060179 -21.09671,14.817489 0,1.47347 22.99139,14.69901 25.55288,14.69901 1.55953,0 9.9654,-4.68478 23.78046,-13.25339 1.1,-0.68226 8,-4.7864 15.33333,-9.1203 7.33333,-4.3339 20.23333,-11.978634 28.66667,-16.988286 25.59983,-15.207068 26.86914,-15.634861 28.75549,-9.691476 1.18921,3.746884 -1.73042,6.311287 -18.14733,15.939373 -18.00278,10.558149 -40.08654,23.632389 -46.35094,27.441129 -2.70814,1.64655 -8.52953,5.06745 -12.93641,7.60201 -15.24222,8.76637 -13.98748,4.21887 -13.98748,50.69431 0,35.05812 -0.2824,40.8019 -2.09524,42.61472 -2.82093,2.82093 -5.51972,2.63937 -7.19118,-0.48377 -0.86343,-1.61333 -1.38025,-17.55287 -1.38025,-42.56959 v -39.99058 l -4.57114,-3.76375 c -7.01651,-5.77717 -18.68917,-11.66621 -21.20787,-10.6997 -1.89576,0.72747 -2.22099,3.11655 -2.22099,16.31511 0,16.66644 -1.10954,20.65799 -5.71358,20.55443 -1.6242,-0.0365 -11.01285,-4.99752 -20.86368,-11.0244 C 41.38023,144.01009 37.97895,141.34079 37.0607,138.07581 36.44575,135.88922 36.06236,125.9658 36.20874,116.02374 36.35511,106.08168 36.02674,97.222169 35.47902,96.335939 34.9313,95.449708 29.87445,92.025607 24.24158,88.726825 14.86189,83.233791 13.85974,82.920392 12.33333,85.002796 9.68727,88.612693 9.94944,194.48289 12.61386,198.28687 c 1.07097,1.52902 6.32097,5.40628 11.66667,8.61614 5.34571,3.20986 10.71654,6.44236 11.93519,7.18332 1.21865,0.74097 6.61865,3.91697 12,7.05778 5.38135,3.14081 10.68427,6.29384 11.78427,7.00672 15.01986,9.73405 46.47093,27.79371 48.00001,27.56229 1.39259,-0.21077 2.20247,-2.48516 2.66666,-7.48888 z M 41.91397,205.29435 c -1.82446,-2.95204 -2.23327,-18.18665 -0.61925,-23.07716 1.28446,-3.89196 2.22892,-4.84893 4.46702,-4.52622 3.87444,0.55865 6.19507,5.7372 6.2186,13.87694 0.0281,9.73042 -2.14221,15.19896 -6.03209,15.19896 -1.71832,0 -3.53374,-0.66262 -4.03428,-1.47252 z m -19.2874,-9.90912 c -0.93497,-1.12656 -1.93796,-6.37656 -2.22888,-11.66666 -0.58817,-10.69518 1.33483,-16.28503 5.6023,-16.28503 4.32955,0 6.16085,5.56572 5.42118,16.47613 -0.84667,12.48878 -4.25872,16.94096 -8.7946,11.47556 z m 49.37342,-62.3689 c 0,-13.28599 -0.12387,-13.86562 -3.66666,-17.15661 -4.687,-4.35388 -15.23859,-10.42618 -18.11715,-10.42618 -1.92979,0 -2.21619,1.86863 -2.21619,14.46002 0,16.34283 -0.33513,15.70901 12,22.69503 11.77872,6.67091 12,6.4944 12,-9.57226 z m 9.95314,-27.50696 c 0.42745,-0.69163 5.11286,-3.71139 10.41202,-6.710576 C 97.66431,95.799612 102.9,92.750467 104,92.022917 c 1.1,-0.72755 14.6,-8.78022 30,-17.894821 15.4,-9.114601 30.59196,-18.11015 33.7599,-19.990109 7.13539,-4.234359 6.90815,-6.631945 -1.09474,-11.550299 -13.74688,-8.44845 -14.25327,-8.579838 -20.4503,-5.306137 -3.0515,1.612022 -6.7482,3.665843 -8.21486,4.564045 -29.79212,18.244991 -35.53709,20.252793 -36.40873,12.724438 -0.3744,-3.233768 1.06556,-4.404933 17.15004,-13.948621 9.65733,-5.730149 17.89563,-11.29629 18.30734,-12.369202 0.41419,-1.079345 -0.39735,-2.763124 -1.81671,-3.769347 -6.1448,-4.356214 -12.20659,-7.939276 -16.22213,-9.588744 -4.26521,-1.75202 -4.65189,-1.579174 -28.66668,12.814008 -13.38872,8.024492 -34.69314,20.74637 -47.34314,28.270841 -12.65,7.52447 -23,14.481005 -23,15.458966 0,1.792889 7.75053,7.201696 18.45444,12.878673 3.55987,1.888035 4.86071,1.268581 33.10494,-15.764432 17.46799,-10.534271 22.5217,-11.916077 23.87408,-6.527751 0.44968,1.791653 0.48094,3.802265 0.0695,4.468025 -0.41146,0.66576 -9.15033,6.167156 -19.41971,12.225322 -18.1456,10.704557 -22.59254,13.984227 -21.05123,15.525537 0.40993,0.409931 5.14543,3.365287 10.52333,6.567461 9.57612,5.70192 14.84471,7.21157 16.39781,4.6986 z"
     id="path91"
     inkscape:connector-curvature="0" />
</svg>
