<?xml version="1.0" encoding="UTF-8" standalone="no"?>
<!-- Created with Inkscape (http://www.inkscape.org/) -->

<svg
   xmlns:dc="http://purl.org/dc/elements/1.1/"
   xmlns:cc="http://creativecommons.org/ns#"
   xmlns:rdf="http://www.w3.org/1999/02/22-rdf-syntax-ns#"
   xmlns:svg="http://www.w3.org/2000/svg"
   xmlns="http://www.w3.org/2000/svg"
   xmlns:sodipodi="http://sodipodi.sourceforge.net/DTD/sodipodi-0.dtd"
   xmlns:inkscape="http://www.inkscape.org/namespaces/inkscape"
   version="1.1"
   id="svg61"
   width="266.8508"
   height="245.33333"
   viewBox="0 0 266.8508 245.33333"
   sodipodi:docname="char-icon-2.svg"
   inkscape:version="0.92.4 (unknown)">

  <path
     style="stroke-width:1.33333325"
     d="m 25.517484,244.03424 c 0,-0.71451 -1.83588,-2.24847 -4.07973,-3.4088 -5.6824,-2.9385 -10.38743,-15.21 -16.2607402,-42.41076 -0.76623,-3.54859 -2.20308,-6.76278 -3.193,-7.14264 -1.28902998,-0.49466 -1.79985998,-3.5223 -1.79985998,-10.66764 0,-8.59162 0.39693,-10.29838 2.85862998,-12.29174 2.36252,-1.91305 2.70053,-3.15754 1.94763,-7.17085 -0.50106,-2.67085 -1.78744,-5.73252 -2.85863,-6.80372 -2.79960998,-2.7996 -2.86127998,-48.08159 -0.0693,-50.87357 1.03309,-1.03309 2.30542,-4.440229 2.8274,-7.571429 1.29702,-7.78044 11.2732302,-28.78981 18.4392202,-38.832041 11.44289,-16.035775 28.03634,-30.7899 44.94862,-39.966214 10.33635,-5.608331 24.05696,-11.05909 30.97184,-12.304123 2.785976,-0.50162 5.893126,-1.739738 6.904756,-2.751375 C 107.59258,0.401084 113.68395,0 134.0889,0 c 15.8105,0 26.09524,0.505242 26.09524,1.281941 0,0.705068 2.55,1.929523 5.66666,2.721013 41.83112,10.623168 76.73928,41.142992 92.26207,80.663707 1.72821,4.4 3.52481,10.23072 3.99245,12.95714 0.46763,2.726429 1.72667,5.833569 2.79785,6.904769 1.55583,1.55582 1.94763,6.52655 1.94763,24.70952 0,12.64029 -0.53489,22.76191 -1.20289,22.76191 -1.50202,0 -4.13044,7.33865 -4.13044,11.53229 0,1.72391 1.2,4.33437 2.66666,5.80104 2.11051,2.11051 2.66667,4.44444 2.66667,11.19068 0,6.20225 -0.52472,8.72537 -1.92644,9.26325 -1.05953,0.40659 -2.31515,3.02079 -2.79025,5.80932 -0.84927,4.98475 -3.58382,14.90119 -9.04179,32.78884 -2.31555,7.58886 -3.52819,9.51944 -7.50177,11.94322 -2.60686,1.5901 -4.93975,3.36666 -5.18419,3.9479 -0.61584,1.46434 -5.55556,1.33442 -5.55556,-0.1461 0,-1.86668 -7.77583,-4.13044 -14.18767,-4.13044 -4.34573,0 -6.20509,0.66509 -7.45509,2.66666 -1.39425,2.23254 -3.10937,2.66667 -10.53532,2.66667 -6.46141,0 -9.06862,-0.51773 -9.6016,-1.90665 -0.41117,-1.07151 -3.53981,-2.32408 -7.14265,-2.85963 -4.95099,-0.73593 -7.57939,-2.1176 -11.54147,-6.06695 -4.81957,-4.80409 -5.09068,-5.49934 -4.474,-11.4737 0.64071,-6.20704 2.15615,-12.68226 7.41738,-31.69307 1.42065,-5.13333 3.59194,-13.23333 4.82509,-18 8.69533,-33.61117 12.1488,-36.99975 32.32769,-31.72023 15.39811,4.02868 17.84045,4.31248 19.1616,2.22658 2.53572,-4.00351 1.25156,-9.06692 -3.36491,-13.26782 -3.25588,-2.96278 -4.82292,-5.7532 -5.44673,-9.699 -2.51596,-15.91392 -10.87465,-34.622339 -20.43187,-45.730529 -11.56041,-13.43646 -30.26025,-25.12622 -48.88378,-30.558516 -12.04869,-3.51448 -33.18284,-3.164242 -46,0.762319 -14.919636,4.57066 -27.214186,11.583757 -38.167266,21.771497 -15.37194,14.29783 -22.01861,25.75082 -27.2079,46.882369 -2.3,9.3659 -3.93588,13.09838 -7.45251,17.00384 -4.80443,5.33566 -5.76327,10.29257 -2.51275,12.99026 1.12943,0.93735 3.29578,1.27714 5,0.78423 23.67306,-6.84685 29.10373,-6.94012 35.17402,-0.60411 3.62985,3.78875 4.67124,6.54512 9.75731,25.82578 1.35413,5.13333 3.6828,13.83333 5.17482,19.33333 1.49202,5.5 4.22413,15.7 6.07136,22.66667 l 3.35858,12.66666 -2.62123,5.46931 c -2.76659,5.77261 -6.89071,8.48961 -16.90776,11.13899 -3.11667,0.8243 -5.66667,2.07466 -5.66667,2.77856 0,0.70389 -4.5,1.27981 -10,1.27981 -7.65865,0 -10,-0.43487 -10,-1.85735 0,-2.21774 -2.86329,-3.47598 -7.91008,-3.47598 -4.65404,0 -12.08992,2.54041 -12.08992,4.13044 0,0.66158 -1.8,1.20289 -4,1.20289 -2.2,0 -4,-0.58459 -4,-1.29909 z m 41.14124,-11.70091 c 0.83389,-1.57541 0.41392,-5.14848 -1.29289,-11 -1.39038,-4.76667 -3.42504,-11.7194 -4.52148,-15.45052 -1.09645,-3.73112 -1.99353,-7.76001 -1.99353,-8.95309 0,-2.6435 4.39739,-5.20518 7.13314,-4.15538 2.18803,0.83963 5.35691,7.9375 6.79756,15.22566 2.20793,11.1698 6.29463,21.33333 8.578,21.33333 4.94309,0 6.89695,-5.56213 4.31042,-12.2706 -0.64949,-1.68451 -2.50728,-8.16273 -4.12844,-14.39607 -7.84811,-30.17593 -13.22235,-48.11158 -15.12241,-50.46856 -2.8682,-3.55793 -25.12541,2.02574 -26.94168,6.75886 -0.65756,1.71358 0.68569,7.55208 8.06233,35.04304 1.96776,7.33333 4.13738,15.73333 4.8214,18.66666 1.91624,8.21754 5.36439,18.48386 6.82936,20.33334 1.91115,2.41276 6.033,2.04481 7.46822,-0.66667 z m -11.046,-51.76191 C 51.996234,176.95494 53.995144,172 59.070574,172 c 1.98322,0 5.11358,3.56104 5.11358,5.8171 0,1.10655 -4.1164,4.84956 -5.33333,4.84956 -0.62858,0 -2.08572,-0.94285 -3.2381,-2.09524 z M 207.84341,233 c 1.54752,-1.95526 5.46987,-14.38746 9.57015,-30.33334 1.60282,-6.23333 3.5246,-13.43333 4.2706,-16 3.34953,-11.5242 6.49998,-24.55397 6.49998,-26.88289 0,-3.63549 -10.74404,-7.95263 -20.479,-8.22881 l -7.81233,-0.22163 -2.98165,9.33333 c -1.63991,5.13334 -3.7536,12.33334 -4.69709,16 -0.9435,3.66667 -3.1171,11.76667 -4.83024,18 -8.56527,31.16518 -8.72347,34 -1.89754,34 2.56035,0 3.38732,-1.29842 5.51982,-8.66666 7.75624,-26.7994 7.69761,-26.66667 11.77894,-26.66667 5.01621,0 5.87889,2.77816 3.46457,11.15735 -7.43425,25.80153 -7.55634,26.37961 -5.97405,28.28614 1.93905,2.33642 5.80504,2.45043 7.56784,0.22318 z m -1.9926,-51.21638 c -1.47861,-0.59664 -2.50936,-8.45029 -1.10905,-8.45029 0.30669,0 1.42933,-0.33451 2.49474,-0.74335 1.92311,-0.73796 6.28098,2.55307 6.28098,4.74335 0,1.41252 -3.8588,5.37192 -5.09524,5.22807 -0.49762,-0.0579 -1.65476,-0.4079 -2.57143,-0.77778 z M 40.993174,229.27921 c 4.09856,-1.55827 4.03163,-3.20523 -0.84348,-20.75537 -11.69047,-42.08511 -9.96416,-38.92314 -19.9435,-36.52914 -7.80481,1.87235 -9.78917,4.78832 -7.70772,11.32634 0.70256,2.20676 2.06358,7.01229 3.0245,10.67896 10.04463,38.32806 10.24533,38.74998 17.76165,37.33992 2.48466,-0.46612 5.95351,-1.39344 7.70855,-2.06071 z M 242.05316,228.2533 c 1.71669,-3.31972 5.22369,-15.66109 8.97585,-31.58664 0.69112,-2.93333 2.22201,-7.901 3.40199,-11.03925 2.91528,-7.75343 1.12108,-11.64344 -6.29086,-13.63927 -8.79769,-2.36897 -10.93476,-1.48834 -12.97156,5.34519 -2.08702,7.00207 -7.6155,27.43229 -10.91818,40.3476 -2.53815,9.9256 -2.19235,10.85019 4.8485,12.96364 7.45296,2.23717 10.88876,1.60295 12.95426,-2.39127 z M 22.861414,159.32057 c 2.50115,-3.01371 -0.75559,-21.5722 -4.16269,-23.721 -6.19307,-3.90587 -8.11254,2.94393 -4.56268,16.28223 2.38983,8.97954 5.35127,11.50432 8.72537,7.43877 z m 227.668706,0.34609 c 0.73653,-0.91666 2.27468,-5.82212 3.41808,-10.90101 2.44614,-10.86548 1.38033,-14.49697 -4.06354,-13.84556 -3.11582,0.37284 -3.68817,1.39089 -5.85433,10.41324 -2.95888,12.32415 -2.93087,11.39151 -0.41761,13.90476 2.52497,2.52497 5.10453,2.6848 6.9174,0.42857 z M 29.517484,121.33333 c 1.46667,-1.46666 2.67567,-4.01666 2.68668,-5.66666 0.0344,-5.15658 6.30543,-23.510369 10.73797,-31.427359 12.89588,-23.033482 34.69711,-40.510309 61.242016,-49.094322 10.08804,-3.262241 13.31115,-3.6632 29.33333,-3.649108 13.49072,0.01187 19.50309,0.573164 24,2.240571 3.3,1.223606 6.8698,2.23347 7.93289,2.244144 1.06308,0.01067 7.54646,2.843094 14.40748,6.294271 19.49567,9.806548 37.88433,28.383884 46.58055,47.058464 3.26908,7.02016 8.41241,23.935709 8.41241,27.666999 0,4.77304 4.36569,7.18775 12.18757,6.74107 l 7.14576,-0.40807 0.42618,-5.20723 C 255.08805,112.28897 251.70068,97.100531 247.8915,88.000001 228.43205,41.509209 183.34292,11.292434 133.51748,11.351515 99.007084,11.392435 67.316334,25.412002 43.086644,51.356923 c -7.97093,8.535188 -21.55094,28.830678 -21.57737,32.247618 -0.005,0.58417 -0.9434,2.85566 -2.08641,5.04776 -2.27908,4.37089 -7.23871,24.331249 -7.23871,29.132669 0,4.4626 2.5189,6.21503 8.93333,6.21503 3.95556,0 6.56021,-0.82688 8.4,-2.66667 z"
     id="path133"
     inkscape:connector-curvature="0" />
</svg>
