<?xml version="1.0" encoding="UTF-8" standalone="no"?>
<!-- Created with Inkscape (http://www.inkscape.org/) -->

<svg
   xmlns:dc="http://purl.org/dc/elements/1.1/"
   xmlns:cc="http://creativecommons.org/ns#"
   xmlns:rdf="http://www.w3.org/1999/02/22-rdf-syntax-ns#"
   xmlns:svg="http://www.w3.org/2000/svg"
   xmlns="http://www.w3.org/2000/svg"
   xmlns:sodipodi="http://sodipodi.sourceforge.net/DTD/sodipodi-0.dtd"
   xmlns:inkscape="http://www.inkscape.org/namespaces/inkscape"
   version="1.1"
   id="svg71"
   width="266.66666"
   height="266.76514"
   viewBox="0 0 266.66666 266.76514"
   sodipodi:docname="load-icon.svg"
   inkscape:version="0.92.4 (unknown)">
  <path
     style="stroke-width:1.33333325"
     d="m 1.6,265.0247 c -0.88,-0.88 -1.6,-5.05889 -1.6,-9.28643 0,-6.23473 0.48708,-7.94709 2.57901,-9.06666 3.5829,-1.91751 257.92574,-1.91751 261.50864,0 2.09193,1.11957 2.57901,2.83193 2.57901,9.06666 0,4.22754 -0.72,8.40643 -1.6,9.28643 -2.32057,2.32057 -261.14608,2.32057 -263.46666,0 z m 91.24113,-80.91482 c -42.59136,-42.6845 -40.52475,-39.47066 -30.84569,-47.96899 2.62021,-2.30057 5.45894,-4.18285 6.3083,-4.18285 0.84936,0 13.42848,11.83024 27.9536,26.28944 l 26.40932,26.28942 V 93.847471 c 0,-68.758447 0.38692,-91.0763515 1.6,-92.2894315 2.07739,-2.077386 16.05595,-2.077386 18.13334,0 1.21308,1.21308 1.6,23.5309845 1.6,92.2894315 V 184.5369 l 26.40932,-26.28942 c 14.52513,-14.4592 27.10425,-26.28944 27.9536,-26.28944 0.84936,0 3.68809,1.88228 6.3083,4.18285 9.67905,8.49833 11.74567,5.28449 -30.84569,47.96899 -21.13695,21.18314 -39.35843,38.51482 -40.4922,38.51482 -1.13377,0 -19.35526,-17.33168 -40.4922,-38.51482 z"
     id="path81"
     inkscape:connector-curvature="0" />
</svg>
