<?xml version="1.0" encoding="UTF-8" standalone="no"?>
<!-- Created with Inkscape (http://www.inkscape.org/) -->

<svg
   xmlns:dc="http://purl.org/dc/elements/1.1/"
   xmlns:cc="http://creativecommons.org/ns#"
   xmlns:rdf="http://www.w3.org/1999/02/22-rdf-syntax-ns#"
   xmlns:svg="http://www.w3.org/2000/svg"
   xmlns="http://www.w3.org/2000/svg"
   xmlns:sodipodi="http://sodipodi.sourceforge.net/DTD/sodipodi-0.dtd"
   xmlns:inkscape="http://www.inkscape.org/namespaces/inkscape"
   version="1.1"
   id="svg112"
   width="265.33331"
   height="191.99066"
   viewBox="0 0 265.33332 191.99066"
   sodipodi:docname="mail-icon.svg"
   inkscape:version="0.92.4 (unknown)">
  <metadata
     id="metadata118">
    <rdf:RDF>
      <cc:Work
         rdf:about="">
        <dc:format>image/svg+xml</dc:format>
        <dc:type
           rdf:resource="http://purl.org/dc/dcmitype/StillImage" />
        <dc:title></dc:title>
      </cc:Work>
    </rdf:RDF>
  </metadata>
  <defs
     id="defs116" />
  <sodipodi:namedview
     pagecolor="#ffffff"
     bordercolor="#666666"
     borderopacity="1"
     objecttolerance="10"
     gridtolerance="10"
     guidetolerance="10"
     inkscape:pageopacity="0"
     inkscape:pageshadow="2"
     inkscape:window-width="1920"
     inkscape:window-height="1007"
     id="namedview114"
     showgrid="false"
     inkscape:zoom="1.5928317"
     inkscape:cx="502.99417"
     inkscape:cy="93.68173"
     inkscape:window-x="0"
     inkscape:window-y="24"
     inkscape:window-maximized="1"
     inkscape:current-layer="svg112" />
  <path
     style="fill:#dc3d42;stroke-width:1.33333337"
     d="m 11.57283,189.76312 c -2.43494,-1.19988 -6.03494,-4.28952 -8,-6.86584 L 0,178.21304 V 96.005474 13.797894 L 3.5914,9.0893189 c 7.33979,-9.62295274 -0.32055,-9.08384594 129.07526,-9.08384594 129.39581,0 121.73548,-0.5391068 129.07526,9.08384594 l 3.5914,4.7085751 v 82.20758 82.207566 l -3.5914,4.70859 c -7.34221,9.62613 0.35227,9.08727 -129.27677,9.05348 C 27.36296,191.94781 15.56806,191.7319 11.57283,189.76312 Z m 240.74533,-9.13029 c 1.60134,-1.12163 3.5315,-4.27163 4.28924,-7 1.55563,-5.60129 1.81348,-150.089353 0.27479,-153.979616 -0.75905,-1.919101 -8.83264,4.587366 -43.84359,35.333334 -23.60226,20.727076 -42.79142,38.35117 -42.64258,39.164656 0.14885,0.813485 11.24763,11.875986 24.66395,24.583346 18.3323,17.36357 24.29557,23.78757 23.99999,25.85427 -1.09622,7.66478 -5.91189,3.95932 -50.57007,-38.91176 l -6.17676,-5.929586 -7.43467,6.732856 c -9.68648,8.77212 -13.95427,10.85847 -22.2118,10.85847 -8.25753,0 -12.52532,-2.08635 -22.2118,-10.85847 l -7.43466,-6.732856 -6.17677,5.929586 c -44.65819,42.87108 -49.47385,46.57654 -50.57007,38.91176 -0.29558,-2.0667 5.66768,-8.4907 24,-25.85427 C 83.68968,106.02719 94.78697,94.964689 94.93402,94.151204 95.08106,93.337718 75.89551,75.70334 52.29945,54.963696 17.09024,24.016716 9.22927,17.68113 8.45915,19.630362 6.91498,23.538724 7.16525,168.01338 8.72592,173.63283 c 2.68207,9.65724 -5.79056,9.03931 123.94074,9.03931 102.61106,0 117.09236,-0.24682 119.6515,-2.03931 z m -113.94545,-72.419 c 2.78979,-1.10235 111.388,-96.404156 111.53044,-97.875024 0.0533,-0.5500001 -52.70316,-1.0000001 -117.23649,-1.0000001 -64.53333,0 -117.28975,0.45 -117.23649,1.0000001 0.14244,1.470868 108.74065,96.772674 111.53044,97.875024 1.30499,0.51565 3.87272,0.93755 5.70605,0.93755 1.83333,0 4.40105,-0.4219 5.70605,-0.93755 z"
     id="path122"
     inkscape:connector-curvature="0" />
</svg>
