<?xml version="1.0" encoding="UTF-8" standalone="no"?>
<!-- Created with Inkscape (http://www.inkscape.org/) -->

<svg
   xmlns:dc="http://purl.org/dc/elements/1.1/"
   xmlns:cc="http://creativecommons.org/ns#"
   xmlns:rdf="http://www.w3.org/1999/02/22-rdf-syntax-ns#"
   xmlns:svg="http://www.w3.org/2000/svg"
   xmlns="http://www.w3.org/2000/svg"
   xmlns:sodipodi="http://sodipodi.sourceforge.net/DTD/sodipodi-0.dtd"
   xmlns:inkscape="http://www.inkscape.org/namespaces/inkscape"
   version="1.1"
   id="svg61"
   width="266.49084"
   height="266.7551"
   viewBox="0 0 266.49085 266.7551"
   sodipodi:docname="pdf-icon.svg"
   inkscape:version="0.92.4 (unknown)">
  <path
     style="stroke-width:1.33333325"
     d="M 15.157515,264.89813 C 9.4398755,262.393 2.6547755,254.96868 1.0568655,249.46905 0.15265548,246.35699 -0.17623452,205.98216 0.08903548,130.65673 l 0.40181,-114.098351 3.21310002,-4.688545 c 1.76721,-2.5786991 5.32261,-6.1344381 7.9008995,-7.9016421 L 16.292645,0.755094 88.948505,0.377547 161.60436,0 l 27.44325,27.348825 27.44324,27.348826 v 18.362054 18.362053 l -8.33333,0.396956 -8.33334,0.396957 V 79.485381 66.755092 h -18.73287 c -29.14788,0 -30.60046,-1.452568 -30.60046,-30.600453 V 17.42176 H 85.424185 c -48.82963,0 -65.46594,0.399272 -66.66667,1.6 -2.01304,2.01304 -2.30315,224.55453 -0.29688,227.73332 1.04406,1.65424 6.74563,2.11525 32.97958,2.66667 l 31.7173,0.66666 0.39695,8.33334 0.39696,8.33333 -32.39695,-0.0521 c -23.74879,-0.0383 -33.46474,-0.52008 -36.39696,-1.80482 z m 67.9613,-48.87234 c -0.47451,-0.76778 -0.42607,-18.75067 0.10766,-39.962 0.86608,-34.41955 1.22364,-38.79521 3.32567,-40.69751 1.99817,-1.80833 5.62451,-2.06676 23.919395,-1.70466 l 21.56414,0.4268 4.56092,4.98041 4.56092,4.98043 v 18.50644 c 0,16.96526 -0.24072,18.81245 -2.89053,22.18114 -4.48316,5.69943 -10.11651,7.35158 -25.06664,7.35158 H 99.824175 v 12.66666 12.66667 h -7.92131 c -4.35672,0 -8.30954,-0.62818 -8.78405,-1.39596 z m 42.038705,-53.27071 v -12 H 112.49085 99.824175 v 12 12 h 12.666675 12.66667 z m 29.64728,53.28461 c -5.52356,-2.21906 -6.00771,-6.32958 -5.09127,-43.22509 0.73944,-29.76929 1.17323,-34.95368 3.10298,-37.08602 2.04454,-2.2592 4.17717,-2.44172 24.06453,-2.05952 l 21.8212,0.41936 4.56097,4.98041 4.56097,4.98043 v 30.48906 c 0,29.54431 -0.0944,30.62945 -3.04617,35.01959 -1.74049,2.5886 -5.02664,5.21262 -7.66666,6.12192 -5.43915,1.87337 -37.85292,2.14909 -42.30655,0.35986 z m 37.01939,-40.61794 v -24.66667 h -12.66667 -12.66667 v 24.66667 24.66666 h 12.66667 12.66667 z m 24.48637,40.01097 c -0.41979,-1.09396 -0.55096,-18.7312 -0.29148,-39.19385 0.4354,-34.33635 0.6676,-37.42119 3.01176,-40.01097 2.39054,-2.64106 3.86132,-2.80615 25,-2.80615 h 22.46001 v 8.66667 8.66666 h -16.66667 -16.66666 v 8 8 h 16.66666 16.66667 v 8.66667 8.66667 h -16.66667 -16.66666 v 16.66666 16.66667 h -8.04184 c -5.8986,0 -8.24527,-0.5301 -8.80512,-1.98903 z"
     id="path102"
     inkscape:connector-curvature="0" />
</svg>
