<svg xmlns="http://www.w3.org/2000/svg" width="10" height="19" viewBox="0 0 10 19">

  <path id="Forma_1" data-name="Forma 1" class="cls-1" d="M1527.62,277l-2.4,0c-2.69,0-4.43,1.836-4.43,4.676v2.156h-2.41a0.384,0.384,0,0,0-.38.388v3.124a0.383,0.383,0,0,0,.38.387h2.41v7.883a0.384,0.384,0,0,0,.38.387h3.14a0.384,0.384,0,0,0,.38-0.387V287.73h2.82a0.383,0.383,0,0,0,.38-0.387v-3.124a0.4,0.4,0,0,0-.11-0.274,0.378,0.378,0,0,0-.27-0.114h-2.82V282a1.088,1.088,0,0,1,1.32-1.325h1.61a0.384,0.384,0,0,0,.38-0.388v-2.9A0.385,0.385,0,0,0,1527.62,277Z" transform="translate(-1518 -277)"/>
</svg>
