<svg xmlns="http://www.w3.org/2000/svg" width="18" height="10" viewBox="0 0 18 10">
  <path id="Forma_1" data-name="Forma 1" class="cls-1" d="M1530.9,323.032a0.739,0.739,0,0,0-.06-0.114,9.131,9.131,0,0,0-1.79-2.018l-0.02-.018-0.01-.009v-0.009h-0.01a9.39,9.39,0,0,1-.76-0.749,0.669,0.669,0,0,1-.13-0.739,6.355,6.355,0,0,1,.84-1.2c0.26-.323.46-0.581,0.61-0.776,1.08-1.4,1.55-2.294,1.4-2.684l-0.05-.091a0.591,0.591,0,0,0-.29-0.15,1.5,1.5,0,0,0-.6-0.023l-2.7.018a0.363,0.363,0,0,0-.19,0l-0.12.027-0.05.023-0.03.027a0.35,0.35,0,0,0-.11.1,0.458,0.458,0,0,0-.09.16,16.118,16.118,0,0,1-1,2.054c-0.24.377-.45,0.7-0.64,0.981a5.476,5.476,0,0,1-.49.612,4.292,4.292,0,0,1-.35.315,0.362,0.362,0,0,1-.25.1c-0.05-.012-0.11-0.024-0.16-0.037a0.564,0.564,0,0,1-.21-0.223,1.083,1.083,0,0,1-.11-0.356c-0.01-.143-0.03-0.266-0.03-0.37s0-.249.01-0.438,0.01-.317.01-0.383c0-.232,0-0.483.01-0.754s0.02-.485.02-0.643,0.01-.326.01-0.5a2.241,2.241,0,0,0-.03-0.415,1.526,1.526,0,0,0-.1-0.292,0.5,0.5,0,0,0-.19-0.219,1.125,1.125,0,0,0-.32-0.123,9.192,9.192,0,0,0-3.5.1,1.365,1.365,0,0,0-.36.274c-0.11.134-.12,0.207-0.04,0.219a1.14,1.14,0,0,1,.79.393l0.06,0.11a1.727,1.727,0,0,1,.13.419,5.911,5.911,0,0,1,.09.666,7.206,7.206,0,0,1,0,1.142c-0.04.316-.07,0.563-0.09,0.739a1.389,1.389,0,0,1-.13.429c-0.06.11-.09,0.177-0.11,0.2a0.228,0.228,0,0,1-.05.046,0.734,0.734,0,0,1-.25.045,0.588,0.588,0,0,1-.32-0.128,1.931,1.931,0,0,1-.39-0.351,4.387,4.387,0,0,1-.45-0.625,10.207,10.207,0,0,1-.53-0.95l-0.15-.264c-0.09-.171-0.22-0.419-0.38-0.745a9.746,9.746,0,0,1-.43-0.944,0.612,0.612,0,0,0-.23-0.292l-0.05-.028a0.594,0.594,0,0,0-.15-0.077,0.88,0.88,0,0,0-.21-0.06l-2.57.018a0.65,0.65,0,0,0-.53.174l-0.04.054a0.278,0.278,0,0,0-.03.147,0.67,0.67,0,0,0,.06.246c0.37,0.858.78,1.686,1.22,2.483s0.82,1.44,1.15,1.926,0.65,0.947.99,1.379,0.56,0.709.67,0.83,0.2,0.213.26,0.274l0.23,0.219a5.488,5.488,0,0,0,.66.525c0.29,0.2.62,0.405,0.97,0.6a5.172,5.172,0,0,0,1.23.483,4.4,4.4,0,0,0,1.37.151h1.08a0.725,0.725,0,0,0,.49-0.2l0.04-.045a0.458,0.458,0,0,0,.07-0.169,0.987,0.987,0,0,0,.03-0.251,3.783,3.783,0,0,1,.06-0.707,1.946,1.946,0,0,1,.16-0.475,1.047,1.047,0,0,1,.21-0.269,0.563,0.563,0,0,1,.16-0.133,0.625,0.625,0,0,1,.07-0.032,0.608,0.608,0,0,1,.53.142,3.261,3.261,0,0,1,.57.529c0.18,0.211.39,0.446,0.64,0.708a4.282,4.282,0,0,0,.66.584l0.19,0.11a2.1,2.1,0,0,0,.48.2,1.1,1.1,0,0,0,.53.046l2.4-.036a1.114,1.114,0,0,0,.55-0.115,0.43,0.43,0,0,0,.23-0.251,0.639,0.639,0,0,0,.01-0.31A0.715,0.715,0,0,0,1530.9,323.032Z" transform="translate(-1513 -314)"/>
</svg>
