<?xml version="1.0" encoding="UTF-8" standalone="no"?>
<!-- Created with Inkscape (http://www.inkscape.org/) -->

<svg
   xmlns:dc="http://purl.org/dc/elements/1.1/"
   xmlns:cc="http://creativecommons.org/ns#"
   xmlns:rdf="http://www.w3.org/1999/02/22-rdf-syntax-ns#"
   xmlns:svg="http://www.w3.org/2000/svg"
   xmlns="http://www.w3.org/2000/svg"
   xmlns:sodipodi="http://sodipodi.sourceforge.net/DTD/sodipodi-0.dtd"
   xmlns:inkscape="http://www.inkscape.org/namespaces/inkscape"
   version="1.1"
   id="svg121"
   width="2666.6667"
   height="1653.3334"
   viewBox="0 0 2666.6667 1653.3334"
   sodipodi:docname="title-icon.svg"
   inkscape:version="0.92.4 (unknown)">
  <metadata
     id="metadata127">
    <rdf:RDF>
      <cc:Work
         rdf:about="">
        <dc:format>image/svg+xml</dc:format>
        <dc:type
           rdf:resource="http://purl.org/dc/dcmitype/StillImage" />
        <dc:title></dc:title>
      </cc:Work>
    </rdf:RDF>
  </metadata>
  <defs
     id="defs125" />
  <sodipodi:namedview
     pagecolor="#ffffff"
     bordercolor="#666666"
     borderopacity="1"
     objecttolerance="10"
     gridtolerance="10"
     guidetolerance="10"
     inkscape:pageopacity="0"
     inkscape:pageshadow="2"
     inkscape:window-width="1920"
     inkscape:window-height="1007"
     id="namedview123"
     showgrid="false"
     inkscape:zoom="0.023121751"
     inkscape:cx="18863.217"
     inkscape:cy="783.31235"
     inkscape:window-x="0"
     inkscape:window-y="24"
     inkscape:window-maximized="1"
     inkscape:current-layer="svg121" />
  <path
     style="fill:#e1343a;stroke-width:1.33333337"
     d="m 996,1650.0372 c 0,-2.83 -0.9923,-3.5846 -7.0178,-5.3362 -3.8598,-1.1221 -13.1801,-3.2144 -20.7116,-4.6494 -7.8172,-1.4896 -18.1089,-4.5908 -23.9822,-7.2267 -5.6586,-2.5396 -13.7385,-5.5072 -17.9554,-6.5947 -4.2169,-1.0874 -10.5169,-3.6732 -14,-5.746 -3.4831,-2.0729 -10.3338,-5.3476 -15.2237,-7.277 -4.8898,-1.9296 -10.5898,-4.8494 -12.6666,-6.4883 -2.0768,-1.6391 -7.376,-4.7408 -11.776,-6.8929 -22.8204,-11.1615 -56.2993,-38.4398 -80.558,-65.6378 -12.0424,-13.5014 -33.442,-43.1942 -33.442,-46.4021 0,-0.6015 -2.7,-5.0373 -6,-9.8575 -3.3,-4.8201 -6,-9.5657 -6,-10.5456 0,-0.98 -2.164,-4.992 -4.8088,-8.9157 -2.6449,-3.9237 -6.582,-10.6405 -8.7492,-14.9261 -2.1672,-4.2858 -5.6204,-10.1114 -7.6736,-12.9458 -2.0533,-2.8344 -4.5264,-7.128 -5.4958,-9.5412 -0.9695,-2.4132 -3.9421,-7.6876 -6.6059,-11.7209 -2.6638,-4.0333 -5.6365,-9.3077 -6.6059,-11.7209 -0.9695,-2.4132 -3.4426,-6.7068 -5.4959,-9.5412 -2.0532,-2.8344 -5.6545,-8.96 -8.0027,-13.6124 -2.3482,-4.6523 -5.6674,-10.2919 -7.3759,-12.5323 -1.7084,-2.2403 -4.4142,-7.0403 -6.0127,-10.6667 -1.5985,-3.6262 -4.2692,-8.3932 -5.9349,-10.5932 -1.6656,-2.2 -4.6545,-7.3 -6.6419,-11.3333 -1.9875,-4.0333 -4.9506,-9.1333 -6.5849,-11.3333 -1.6342,-2.2 -4.8926,-7.8065 -7.2408,-12.4589 -2.3482,-4.6523 -5.9495,-10.7779 -8.0027,-13.6123 -2.0533,-2.8345 -4.5264,-7.128 -5.4959,-9.5412 -0.9694,-2.4132 -3.942,-7.6876 -6.6058,-11.721 -2.6638,-4.0333 -5.6365,-9.3077 -6.6059,-11.7209 -0.9695,-2.4132 -3.4426,-6.7068 -5.4959,-9.5412 -2.0532,-2.8345 -5.6545,-8.96 -8.0027,-13.6124 -2.3482,-4.6523 -5.6427,-10.2595 -7.321,-12.4603 -1.6783,-2.2008 -4.2903,-6.8915 -5.8044,-10.4237 -1.5141,-3.5323 -5.1568,-9.7793 -8.0949,-13.8823 -2.938,-4.103 -5.3419,-8.202 -5.3419,-9.1089 0,-0.9069 -2.164,-4.8592 -4.8088,-8.7829 -2.6449,-3.9237 -6.629,-10.734 -8.8537,-15.134 -2.2246,-4.4 -5.4003,-9.8 -7.057,-12 -1.6567,-2.2 -4.4521,-7 -6.212,-10.6667 -1.76,-3.6667 -5.4204,-9.884 -8.1342,-13.8163 -2.7139,-3.9323 -4.9343,-7.922 -4.9343,-8.866 0,-0.944 -2.164,-4.9267 -4.8088,-8.8504 -2.6449,-3.9237 -6.582,-10.6404 -8.7492,-14.9261 -2.1673,-4.2857 -5.6204,-10.1113 -7.6736,-12.9457 -2.0533,-2.8344 -4.5264,-7.128 -5.4959,-9.5412 -0.9694,-2.4132 -3.942,-7.6876 -6.6058,-11.721 -2.6638,-4.0333 -5.6365,-9.3077 -6.6059,-11.7209 -0.9695,-2.4132 -3.3695,-6.6132 -5.3334,-9.3334 -3.2508,-4.5026 -9.5206,-15.6094 -18.475,-32.7282 -2.5227,-4.8228 -3.5297,-9.14679 -3.9927,-17.14508 -0.9014,-15.57235 1.2741,-23.48421 9.1592,-33.30917 7.7848,-9.70012 9.0649,-10.65936 21.5811,-16.17218 l 9.6667,-4.25769 L 846,937.68965 c 179.6667,-0.17068 587.3667,0.14348 906,0.69812 l 579.3334,1.00842 10.9218,4.3687 c 9.6152,3.84602 11.8675,5.43746 18.8247,13.30189 4.3465,4.91325 9.8616,12.8332 12.2559,17.59987 2.3942,4.76666 5.532,10.16666 6.9726,12 1.4407,1.83333 4.3724,6.93333 6.515,11.33333 2.1425,4.40002 5.8338,11.10432 8.2028,14.89852 5.5813,8.9391 11.0149,18.2891 17.6405,30.3549 2.9333,5.3419 6.6015,11.4452 8.1515,13.5629 1.55,2.1177 4.0618,6.6903 5.5818,10.1615 1.52,3.4711 4.2358,8.2711 6.0348,10.6666 1.7992,2.3956 5.2047,8.2556 7.5679,13.0222 2.3632,4.7667 5.2155,9.7091 6.3384,10.9832 1.1229,1.274 4.2056,6.4636 6.8503,11.5324 5.2918,10.1421 10.5638,19.384 17.0669,29.9192 2.3421,3.7942 6.4715,11.0986 9.1763,16.2319 2.7049,5.1333 6.0974,10.8333 7.5389,12.6667 1.4416,1.8333 4.374,6.9333 6.5165,11.3333 2.1426,4.4 5.8339,11.1043 8.2028,14.8985 5.5814,8.9392 11.015,18.2891 17.6406,30.355 2.9333,5.3419 6.6014,11.4451 8.1514,13.5628 1.55,2.1177 4.0619,6.6904 5.5819,10.1615 1.52,3.4711 4.2357,8.2711 6.0348,10.6667 1.7992,2.3955 5.0733,7.9555 7.276,12.3555 2.2027,4.4 6.1688,11.2103 8.8137,15.134 2.6448,3.9237 4.8088,7.8837 4.8088,8.7999 0,0.9163 1.7628,4.0996 3.9175,7.0739 2.1545,2.9743 5.8388,9.2144 8.1869,13.8667 2.3483,4.6524 5.62,10.2588 7.2706,12.4588 1.6504,2.2 5.1513,8.3054 7.7797,13.5675 2.6284,5.2621 5.4505,9.9825 6.2715,10.4899 0.8209,0.5073 3.218,4.602 5.3268,9.0992 2.1088,4.4972 6.102,11.8741 8.8738,16.3932 6.5796,10.7265 11.8142,19.759 18.3732,31.7037 2.9334,5.3419 6.6015,11.4452 8.1515,13.5628 1.55,2.1177 4.0575,6.6804 5.572,10.1393 1.5147,3.4588 4.5081,8.8588 6.6523,12 2.1441,3.1411 5.2684,9.9111 6.9429,15.0444 4.5196,13.8555 6.2145,16.6667 10.0489,16.6667 h 3.2991 v 38.5781 38.5782 l -3.6023,0.4218 c -3.1436,0.3682 -4.2252,1.8888 -8.496,11.9459 -9.8677,23.2364 -30.6449,43.9473 -59.235,59.0461 -11.395,6.0178 -17.4923,8.3227 -27.3334,10.3324 -22.3701,4.5683 -26.6666,6.1567 -26.6666,9.8588 v 3.2387 H 1768.6667 996 Z M 332.6667,714.24966 c -14.116,-4.7183 -22.5863,-10.09434 -29.5893,-18.78004 -3.8074,-4.72232 -8.5236,-11.74558 -10.4804,-15.60724 -1.9569,-3.86166 -5.5917,-9.97779 -8.0775,-13.59142 -2.4857,-3.61361 -4.5195,-7.3426 -4.5195,-8.28661 0,-0.94403 -2.164,-4.92669 -4.8088,-8.85039 -2.6449,-3.92369 -6.629,-10.73398 -8.8537,-15.13398 -2.2246,-4.4 -5.4208,-9.80436 -7.1025,-12.00968 -1.6818,-2.20532 -4.4977,-7.11771 -6.2577,-10.9164 -1.76,-3.79871 -4.8093,-9.01678 -6.7764,-11.59572 -1.967,-2.57894 -4.8096,-7.5659 -6.3169,-11.08211 -1.5072,-3.51623 -4.1135,-8.1938 -5.7919,-10.39461 -1.6783,-2.20081 -5.0197,-7.90148 -7.4254,-12.66815 -2.4057,-4.76666 -5.7701,-10.49749 -7.4766,-12.73516 -1.7064,-2.23766 -4.5805,-7.33766 -6.3868,-11.33333 -1.8063,-3.99567 -5.426,-10.22045 -8.0437,-13.83287 -2.6178,-3.61241 -4.7596,-7.30212 -4.7596,-8.19934 0,-0.89723 -2.164,-4.84162 -4.8088,-8.76531 -2.6449,-3.92369 -6.629,-10.73399 -8.8537,-15.13399 -2.2246,-4.4 -5.4426,-9.83302 -7.1511,-12.0734 -1.7085,-2.24037 -4.4062,-7.04037 -5.9949,-10.66666 -1.5887,-3.6263 -4.1567,-8.32592 -5.7067,-10.4436 -1.5499,-2.1177 -5.2181,-8.22099 -8.1514,-13.56287 -6.6256,-12.06584 -12.0593,-21.4158 -17.6406,-30.35493 -2.369,-3.7942 -6.0602,-10.49853 -8.2028,-14.89853 -2.1425,-4.4 -5.0742,-9.5 -6.5149,-11.33334 -1.4407,-1.83333 -4.5836,-7.23333 -6.9842,-12 -2.4007,-4.76666 -5.761,-10.49749 -7.4674,-12.73516 -1.7065,-2.23766 -4.5805,-7.33766 -6.3869,-11.33333 -1.8063,-3.99567 -5.426,-10.22045 -8.0437,-13.83287 -2.6178,-3.61241 -4.7595,-7.30212 -4.7595,-8.19934 0,-0.89723 -2.164,-4.84162 -4.8089,-8.76531 -2.6448,-3.92369 -6.629,-10.73399 -8.8536,-15.13399 -2.2247,-4.4 -5.4427,-9.83302 -7.1512,-12.0734 -1.7085,-2.24037 -4.3967,-7.04037 -5.9738,-10.66666 -1.5772,-3.6263 -4.3747,-8.6075 -6.2168,-11.06932 -1.842,-2.46183 -5.334,-8.55436 -7.7598,-13.53896 -2.4259,-4.98462 -5.0613,-9.46503 -5.8565,-9.9565 -0.7952,-0.49146 -3.5964,-5.19893 -6.2248,-10.46102 -2.6284,-5.26211 -6.2516,-11.52747 -8.0516,-13.92301 -1.7999,-2.39556 -4.5199,-7.19556 -6.0444,-10.66667 -1.5245,-3.47112 -4.4821,-8.81315 -6.5726,-11.87116 -2.0904,-3.05803 -5.7854,-11.15803 -8.2111,-18 C 7.6347,176.56496 6.8417,175.29155 3.599,174.91143 L 0,174.48953 V 132.57809 90.666665 h 3.3944 c 2.9525,0 4.0552,-1.432012 8.4702,-11 9.2268,-19.995776 34.4781,-46.111159 52.0925,-53.875074 4.0569,-1.788175 9.5065,-4.72141 12.1101,-6.518299 2.6036,-1.79689 9.8036,-4.491595 16,-5.988236 25.1392,-6.071988 24.5631,-5.848186 25.0214,-9.720262 L 117.5105,0 h 777.9114 777.9115 v 3.296087 c 0,2.831452 0.9868,3.580151 7,5.311223 3.85,1.108325 12.8177,3.176905 19.9284,4.596844 7.1105,1.419939 17.6105,4.662928 23.3333,7.206643 5.7227,2.543715 13.5177,5.342826 17.3224,6.220246 3.8045,0.877422 9.6777,3.345839 13.0513,5.485372 3.3738,2.139535 10.8562,5.711076 16.6275,7.936762 5.7713,2.225683 11.2648,4.976123 12.2076,6.112089 0.9427,1.135965 6.2476,4.455278 11.7884,7.376252 8.5669,4.516202 24.1911,14.35981 28.7411,18.107681 0.7333,0.604048 5.8333,4.648215 11.3333,8.987039 11.0319,8.702751 36.9081,34.208692 47.3752,46.697082 7.5899,9.05567 24.6248,34.16552 24.6248,36.29759 0,0.77174 2.2204,4.6205 4.9343,8.5528 2.7138,3.93228 6.3742,10.14961 8.1342,13.81628 1.7599,3.66666 4.5554,8.46666 6.212,10.66666 1.6567,2.2 4.8323,7.6 7.057,12 2.2246,4.4 6.2088,11.2103 8.8537,15.13399 2.6448,3.92369 4.8088,7.9134 4.8088,8.86601 0,0.95262 2.1644,4.94232 4.8099,8.86602 2.6454,3.92369 6.8305,11.13934 9.3001,16.03478 2.4697,4.89543 5.1409,9.30289 5.9361,9.79436 0.7952,0.49147 3.5023,5.11924 6.0159,10.28393 2.5135,5.16471 5.9879,11.25724 7.7209,13.53898 1.733,2.28173 4.4588,7.11557 6.0574,10.74186 1.5985,3.6263 4.3042,8.4263 6.0128,10.66667 1.7084,2.24037 4.9264,7.6734 7.151,12.0734 2.2247,4.4 6.2088,11.21029 8.8538,15.13399 2.6448,3.92369 4.8088,7.90636 4.8088,8.85038 0,0.94402 2.2176,4.93372 4.9278,8.86602 2.7104,3.93228 6.8747,11.14214 9.254,16.02192 2.3795,4.87976 4.9768,9.2744 5.772,9.76586 0.7952,0.49147 3.6124,5.19587 6.2606,10.45423 2.648,5.25836 6.1608,11.36372 7.806,13.56745 1.6452,2.20375 4.2816,6.97379 5.8588,10.60008 1.577,3.62629 4.2653,8.42629 5.9738,10.66667 1.7084,2.24037 5.0276,7.87986 7.3759,12.53222 2.3481,4.65235 5.9495,10.77791 8.0027,13.61236 2.0533,2.83444 4.5264,7.12798 5.4958,9.54118 0.9695,2.4132 3.942,7.68764 6.6059,11.72097 2.6639,4.03333 5.6364,9.30777 6.6059,11.72097 0.9694,2.4132 3.4425,6.70674 5.4958,9.54118 2.0532,2.83445 5.6504,8.96001 7.9936,13.61236 2.3432,4.65236 5.4391,9.95882 6.8798,11.79216 1.4406,1.83333 4.3724,6.93333 6.5149,11.33333 2.1425,4.4 5.8339,11.10433 8.2028,14.89853 5.3463,8.56276 10.7264,17.80207 17.6405,30.29415 2.9334,5.2998 6.6015,11.39954 8.1515,13.555 1.55,2.15544 4.118,6.88596 5.7067,10.51225 1.5886,3.62629 4.289,8.42935 6.0006,10.67347 1.7118,2.24412 5.3268,8.27714 8.0336,13.40674 2.7068,5.12959 6.3631,11.74942 8.1252,14.71072 6.9716,11.71591 7.0314,36.76847 0.1134,47.29331 -7.2002,10.95341 -14.2811,16.53937 -26.7971,21.13987 l -12,4.4108 -902.6667,0.56876 c -751.0512,0.47322 -903.5625,0.26933 -908,-1.21392 z"
     id="path131"
     inkscape:connector-curvature="0" />
</svg>
